<?xml version="1.0" encoding="UTF-8" standalone="no"?>
<!-- Created with Inkscape (http://www.inkscape.org/) -->

<svg
   xmlns:dc="http://purl.org/dc/elements/1.1/"
   xmlns:cc="http://creativecommons.org/ns#"
   xmlns:rdf="http://www.w3.org/1999/02/22-rdf-syntax-ns#"
   xmlns:svg="http://www.w3.org/2000/svg"
   xmlns="http://www.w3.org/2000/svg"
   xmlns:sodipodi="http://sodipodi.sourceforge.net/DTD/sodipodi-0.dtd"
   xmlns:inkscape="http://www.inkscape.org/namespaces/inkscape"
   width="264.03705mm"
   height="65.163895mm"
   viewBox="0 0 264.03705 65.163895"
   version="1.1"
   id="svg4722"
   inkscape:version="0.92.3 (2405546, 2018-03-11)"
   sodipodi:docname="titre.svg">
  <defs
     id="defs4716" />
  <sodipodi:namedview
     id="base"
     pagecolor="#ffffff"
     bordercolor="#666666"
     borderopacity="1.0"
     inkscape:pageopacity="0.0"
     inkscape:pageshadow="2"
     inkscape:zoom="0.7"
     inkscape:cx="594.77801"
     inkscape:cy="-23.483895"
     inkscape:document-units="mm"
     inkscape:current-layer="layer1"
     showgrid="false"
     fit-margin-top="0"
     fit-margin-left="0"
     fit-margin-right="0"
     fit-margin-bottom="0"
     inkscape:window-width="1920"
     inkscape:window-height="1001"
     inkscape:window-x="-9"
     inkscape:window-y="-9"
     inkscape:window-maximized="1" />
  <metadata
     id="metadata4719">
    <rdf:RDF>
      <cc:Work
         rdf:about="">
        <dc:format>image/svg+xml</dc:format>
        <dc:type
           rdf:resource="http://purl.org/dc/dcmitype/StillImage" />
        <dc:title></dc:title>
      </cc:Work>
    </rdf:RDF>
  </metadata>
  <g
     inkscape:label="Calque 1"
     inkscape:groupmode="layer"
     id="layer1"
     transform="translate(25.06779,-48.006757)">
    <g
       aria-label="

Du Djan Djan."
       transform="scale(0.95324441,1.0490489)"
       style="font-style:normal;font-weight:normal;font-size:11.79187775px;line-height:1.25;font-family:sans-serif;letter-spacing:0px;word-spacing:0px;fill:#2151a8;fill-opacity:1;stroke:none;stroke-width:0.29479691"
       id="text4726">
      <path
         d="m 101.49093,82.936709 h 4.35286 q 4.21467,0 5.69326,0.386921 1.49241,0.386921 2.26625,1.271311 0.77385,0.884391 0.96731,1.976061 0.19346,1.077851 0.19346,4.256131 v 7.83515 q 0,3.012457 -0.29019,4.035037 -0.27638,1.00875 -0.98113,1.58914 -0.70474,0.56656 -1.74114,0.80148 -1.0364,0.22109 -3.123,0.22109 h -7.33768 z m 5.81763,3.827754 v 14.716817 q 1.25749,0 1.54768,-0.49747 0.29019,-0.51129 0.29019,-2.749904 v -8.691903 q 0,-1.520047 -0.0967,-1.948424 -0.0967,-0.428377 -0.44219,-0.621837 -0.34547,-0.207279 -1.29895,-0.207279 z"
         style="font-style:normal;font-variant:normal;font-weight:normal;font-stretch:normal;font-family:Impact;-inkscape-font-specification:Impact;fill:#2151a8;fill-opacity:1;stroke-width:0.29479691"
         id="path5331" />
      <path
         d="m 129.74998,86.971742 v 18.337288 h -5.67945 l 0.0967,-1.52004 q -0.58038,0.92584 -1.43714,1.39568 -0.84293,0.45601 -1.94842,0.45601 -1.25749,0 -2.08661,-0.4422 -0.82912,-0.44219 -1.22986,-1.17458 -0.38692,-0.73238 -0.48365,-1.52004 -0.0967,-0.80148 -0.0967,-3.164465 V 86.971742 h 5.58272 v 12.478202 q 0,2.141886 0.12437,2.542626 0.13818,0.40074 0.71857,0.40074 0.62183,0 0.73238,-0.41456 0.12437,-0.41456 0.12437,-2.666992 V 86.971742 Z"
         style="font-style:normal;font-variant:normal;font-weight:normal;font-stretch:normal;font-size:28.30050659px;line-height:0;font-family:Impact;-inkscape-font-specification:Impact;fill:#2151a8;fill-opacity:1;stroke-width:0.29479691"
         id="path5333" />
      <path
         d="m 136.92183,82.936709 h 4.35286 q 4.21468,0 5.69327,0.386921 1.49241,0.386921 2.26625,1.271311 0.77384,0.884391 0.9673,1.976061 0.19346,1.077851 0.19346,4.256131 v 7.83515 q 0,3.012457 -0.29019,4.035037 -0.27637,1.00875 -0.98112,1.58914 -0.70475,0.56656 -1.74114,0.80148 -1.0364,0.22109 -3.12301,0.22109 h -7.33768 z m 5.81764,3.827754 v 14.716817 q 1.25749,0 1.54768,-0.49747 0.29019,-0.51129 0.29019,-2.749904 v -8.691903 q 0,-1.520047 -0.0967,-1.948424 -0.0967,-0.428377 -0.44219,-0.621837 -0.34547,-0.207279 -1.29895,-0.207279 z"
         style="font-style:normal;font-variant:normal;font-weight:normal;font-stretch:normal;font-size:28.30050659px;line-height:0;font-family:Impact;-inkscape-font-specification:Impact;fill:#2151a8;fill-opacity:1;stroke-width:0.29479691"
         id="path5335" />
      <path
         d="m 158.31304,82.936709 v 2.915726 h -5.74854 v -2.915726 z m 0,4.035033 v 14.509538 q 0,2.55644 -0.11055,3.46847 -0.0967,0.89821 -0.63566,1.57532 -0.52511,0.69093 -1.42332,1.02258 -0.88439,0.33164 -2.66699,0.33164 h -2.1557 v -2.92954 q 0.99494,0 1.11931,-0.2211 0.12437,-0.2211 0.12437,-2.76372 V 86.971742 Z"
         style="font-style:normal;font-variant:normal;font-weight:normal;font-stretch:normal;font-size:28.30050659px;line-height:0;font-family:Impact;-inkscape-font-specification:Impact;fill:#2151a8;fill-opacity:1;stroke-width:0.29479691"
         id="path5337" />
      <path
         d="m 165.29143,94.074506 h -5.23725 V 92.84465 q 0,-2.128066 0.48365,-3.27501 0.49747,-1.160763 1.97606,-2.045154 1.47859,-0.884391 3.84158,-0.884391 2.83281,0 4.26994,1.008758 1.43714,0.99494 1.72733,2.459712 0.29019,1.450954 0.29019,5.997276 v 9.203189 h -5.43071 v -1.63059 q -0.51129,0.98112 -1.32659,1.47859 -0.80148,0.48365 -1.92078,0.48365 -1.46478,0 -2.69463,-0.8153 -1.21604,-0.82911 -1.21604,-3.60665 v -1.506233 q 0,-2.058972 0.64948,-2.805177 0.64947,-0.746205 3.21973,-1.741145 2.7499,-1.077851 2.94336,-1.450953 0.19346,-0.373103 0.19346,-1.520047 0,-1.437135 -0.22109,-1.865512 -0.20728,-0.442195 -0.70475,-0.442195 -0.56657,0 -0.70475,0.373102 -0.13819,0.359284 -0.13819,1.893149 z m 1.76878,2.514986 q -1.3404,0.981121 -1.5615,1.644414 -0.20728,0.663293 -0.20728,1.906964 0,1.42332 0.17964,1.83788 0.19346,0.41456 0.74621,0.41456 0.52511,0 0.67711,-0.31783 0.16582,-0.33165 0.16582,-1.71351 z"
         style="font-style:normal;font-variant:normal;font-weight:normal;font-stretch:normal;font-size:28.30050659px;line-height:0;font-family:Impact;-inkscape-font-specification:Impact;fill:#2151a8;fill-opacity:1;stroke-width:0.29479691"
         id="path5339" />
      <path
         d="m 180.24317,86.971742 -0.0967,1.68587 q 0.60801,-1.008759 1.47859,-1.506228 0.88439,-0.511289 2.03133,-0.511289 1.43714,0 2.34917,0.677112 0.91202,0.677112 1.17458,1.713507 0.26255,1.022577 0.26255,3.427015 v 12.851301 h -5.58272 V 92.609733 q 0,-1.893149 -0.12436,-2.307707 -0.12437,-0.414558 -0.69093,-0.414558 -0.5942,0 -0.74621,0.483651 -0.152,0.469833 -0.152,2.542624 v 12.395287 h -5.58272 V 86.971742 Z"
         style="font-style:normal;font-variant:normal;font-weight:normal;font-stretch:normal;font-size:28.30050659px;line-height:0;font-family:Impact;-inkscape-font-specification:Impact;fill:#2151a8;fill-opacity:1;stroke-width:0.29479691"
         id="path5341" />
      <path
         d="m 194.51779,82.936709 h 4.35286 q 4.21467,0 5.69327,0.386921 1.4924,0.386921 2.26625,1.271311 0.77384,0.884391 0.9673,1.976061 0.19346,1.077851 0.19346,4.256131 v 7.83515 q 0,3.012457 -0.29019,4.035037 -0.27637,1.00875 -0.98112,1.58914 -0.70475,0.56656 -1.74115,0.80148 -1.03639,0.22109 -3.123,0.22109 h -7.33768 z m 5.81763,3.827754 v 14.716817 q 1.25749,0 1.54769,-0.49747 0.29019,-0.51129 0.29019,-2.749904 v -8.691903 q 0,-1.520047 -0.0967,-1.948424 -0.0967,-0.428377 -0.4422,-0.621837 -0.34546,-0.207279 -1.29895,-0.207279 z"
         style="font-style:normal;font-variant:normal;font-weight:normal;font-stretch:normal;font-size:28.30050659px;line-height:0;font-family:Impact;-inkscape-font-specification:Impact;fill:#2151a8;fill-opacity:1;stroke-width:0.29479691"
         id="path5343" />
      <path
         d="m 215.90899,82.936709 v 2.915726 h -5.74854 v -2.915726 z m 0,4.035033 v 14.509538 q 0,2.55644 -0.11055,3.46847 -0.0967,0.89821 -0.63565,1.57532 -0.52511,0.69093 -1.42332,1.02258 -0.88439,0.33164 -2.66699,0.33164 h -2.1557 v -2.92954 q 0.99494,0 1.1193,-0.2211 0.12437,-0.2211 0.12437,-2.76372 V 86.971742 Z"
         style="font-style:normal;font-variant:normal;font-weight:normal;font-stretch:normal;font-size:28.30050659px;line-height:0;font-family:Impact;-inkscape-font-specification:Impact;fill:#2151a8;fill-opacity:1;stroke-width:0.29479691"
         id="path5345" />
      <path
         d="m 222.88739,94.074506 h -5.23725 V 92.84465 q 0,-2.128066 0.48365,-3.27501 0.49747,-1.160763 1.97606,-2.045154 1.47859,-0.884391 3.84157,-0.884391 2.83281,0 4.26995,1.008758 1.43713,0.99494 1.72733,2.459712 0.29019,1.450954 0.29019,5.997276 v 9.203189 h -5.43072 v -1.63059 q -0.51128,0.98112 -1.32658,1.47859 -0.80148,0.48365 -1.92079,0.48365 -1.46477,0 -2.69463,-0.8153 -1.21603,-0.82911 -1.21603,-3.60665 v -1.506233 q 0,-2.058972 0.64947,-2.805177 0.64947,-0.746205 3.21974,-1.741145 2.7499,-1.077851 2.94336,-1.450953 0.19346,-0.373103 0.19346,-1.520047 0,-1.437135 -0.2211,-1.865512 -0.20728,-0.442195 -0.70475,-0.442195 -0.56656,0 -0.70475,0.373102 -0.13818,0.359284 -0.13818,1.893149 z m 1.76878,2.514986 q -1.34041,0.981121 -1.5615,1.644414 -0.20728,0.663293 -0.20728,1.906964 0,1.42332 0.17964,1.83788 0.19346,0.41456 0.7462,0.41456 0.52511,0 0.67712,-0.31783 0.16582,-0.33165 0.16582,-1.71351 z"
         style="font-style:normal;font-variant:normal;font-weight:normal;font-stretch:normal;font-size:28.30050659px;line-height:0;font-family:Impact;-inkscape-font-specification:Impact;fill:#2151a8;fill-opacity:1;stroke-width:0.29479691"
         id="path5347" />
      <path
         d="m 237.83911,86.971742 -0.0967,1.68587 q 0.60802,-1.008759 1.47859,-1.506228 0.88439,-0.511289 2.03134,-0.511289 1.43713,0 2.34916,0.677112 0.91203,0.677112 1.17458,1.713507 0.26256,1.022577 0.26256,3.427015 v 12.851301 h -5.58272 V 92.609733 q 0,-1.893149 -0.12437,-2.307707 -0.12436,-0.414558 -0.69093,-0.414558 -0.5942,0 -0.7462,0.483651 -0.15201,0.469833 -0.15201,2.542624 v 12.395287 h -5.58271 V 86.971742 Z"
         style="font-style:normal;font-variant:normal;font-weight:normal;font-stretch:normal;font-size:28.30050659px;line-height:0;font-family:Impact;-inkscape-font-specification:Impact;fill:#2151a8;fill-opacity:1;stroke-width:0.29479691"
         id="path5349" />
      <path
         d="m 250.69042,100.74889 v 4.56014 h -4.21467 v -4.56014 z"
         style="font-style:normal;font-variant:normal;font-weight:normal;font-stretch:normal;font-size:28.30050659px;line-height:0;font-family:Impact;-inkscape-font-specification:Impact;fill:#2151a8;fill-opacity:1;stroke-width:0.29479691"
         id="path5351" />
    </g>
    <g
       aria-label="Bienvenue sur le site de notre élevage de"
       style="font-style:normal;font-weight:normal;font-size:14.19017124px;line-height:1.25;font-family:sans-serif;letter-spacing:0px;word-spacing:0px;fill:#2151a8;fill-opacity:1;stroke:none;stroke-width:0.3547543"
       id="text4726-2">
      <path
         d="m -25.06779,48.477915 h 2.910094 q 1.37883,0 2.085567,0.214792 0.713666,0.214793 1.15018,0.873028 0.436514,0.651307 0.436514,2.106354 0,0.983889 -0.311796,1.371901 -0.304867,0.388013 -1.212539,0.595876 1.011604,0.228651 1.371901,0.762168 0.360298,0.526588 0.360298,1.621338 v 1.039319 q 0,1.136322 -0.263295,1.683697 -0.256365,0.547375 -0.824526,0.74831 -0.568161,0.200935 -2.328075,0.200935 h -3.374323 z m 2.917022,1.919276 v 2.494366 q 0.187078,-0.0069 0.29101,-0.0069 0.429585,0 0.547375,-0.207864 0.117789,-0.214793 0.117789,-1.212539 0,-0.526588 -0.097,-0.734452 -0.097,-0.214793 -0.256366,-0.270223 -0.152433,-0.05543 -0.602805,-0.06236 z m 0,4.240422 v 3.138744 q 0.616663,-0.02079 0.782954,-0.194006 0.17322,-0.17322 0.17322,-0.852242 v -1.046248 q 0,-0.720595 -0.152433,-0.873028 -0.152434,-0.152434 -0.803741,-0.17322 z"
         style="font-style:normal;font-variant:normal;font-weight:normal;font-stretch:normal;font-size:14.19017124px;line-height:1.25;font-family:Impact;-inkscape-font-specification:Impact;fill:#2151a8;fill-opacity:1;stroke-width:0.3547543"
         id="path5132" />
      <path
         d="m -14.425162,48.477915 v 1.461975 h -2.882378 v -1.461975 z m 0,2.023208 v 9.19451 h -2.882378 v -9.19451 z"
         style="font-style:normal;font-variant:normal;font-weight:normal;font-stretch:normal;font-size:14.19017124px;line-height:1.25;font-family:Impact;-inkscape-font-specification:Impact;fill:#2151a8;fill-opacity:1;stroke-width:0.3547543"
         id="path5134" />
      <path
         d="m -7.0875684,55.261204 h -3.6237596 v 1.988564 q 0,0.623592 0.09007,0.803741 0.09008,0.180148 0.34644,0.180148 0.3187247,0 0.4226566,-0.235579 0.1108607,-0.242508 0.1108607,-0.928458 v -1.212539 h 2.6537283 v 0.679022 q 0,0.852241 -0.1108607,1.309542 -0.1039319,0.4573 -0.4988732,0.97696 -0.3949413,0.519659 -1.0046752,0.782954 -0.6028051,0.256365 -1.5174065,0.256365 -0.886885,0 -1.565907,-0.256365 -0.679022,-0.256366 -1.060106,-0.699809 -0.374155,-0.450371 -0.519659,-0.983888 -0.145505,-0.540446 -0.145505,-1.565908 V 53.67451 q 0,-1.20561 0.325653,-1.898489 0.325654,-0.699808 1.067035,-1.067035 0.741381,-0.374155 1.704483,-0.374155 1.1778953,0 1.9400627,0.450372 0.7690962,0.443443 1.0739632,1.184824 0.3117957,0.734452 0.3117957,2.07171 z m -2.8061618,-1.496619 v -0.672093 q 0,-0.713666 -0.076217,-0.92153 -0.076217,-0.207864 -0.3117961,-0.207864 -0.291009,0 -0.360297,0.180149 -0.06929,0.17322 -0.06929,0.949245 v 0.672093 z"
         style="font-style:normal;font-variant:normal;font-weight:normal;font-stretch:normal;font-size:14.19017124px;line-height:1.25;font-family:Impact;-inkscape-font-specification:Impact;fill:#2151a8;fill-opacity:1;stroke-width:0.3547543"
         id="path5136" />
      <path
         d="m -3.3183035,50.501123 -0.048502,0.845312 q 0.304867,-0.505802 0.7413811,-0.755238 0.4434428,-0.256366 1.0185328,-0.256366 0.72059459,0 1.17789503,0.339511 0.45730044,0.339511 0.58894753,0.859171 0.1316471,0.512731 0.1316471,1.718341 v 6.443779 H -2.5076345 v -6.367562 q 0,-0.949245 -0.062359,-1.157109 -0.062359,-0.207864 -0.3464397,-0.207864 -0.2979382,0 -0.3741549,0.242508 -0.076217,0.235579 -0.076217,1.274898 v 6.215129 h -2.799233 v -9.19451 z"
         style="font-style:normal;font-variant:normal;font-weight:normal;font-stretch:normal;font-size:14.19017124px;line-height:1.25;font-family:Impact;-inkscape-font-specification:Impact;fill:#2151a8;fill-opacity:1;stroke-width:0.3547543"
         id="path5138" />
      <path
         d="m 7.047173,50.501123 -1.3095422,9.19451 H 2.0861561 L 0.67961081,50.501123 H 3.1809056 l 0.7829538,6.707073 q 0.090074,-0.734453 0.304867,-3.602973 0.1247183,-1.600552 0.2771518,-3.1041 z"
         style="font-style:normal;font-variant:normal;font-weight:normal;font-stretch:normal;font-size:14.19017124px;line-height:1.25;font-family:Impact;-inkscape-font-specification:Impact;fill:#2151a8;fill-opacity:1;stroke-width:0.3547543"
         id="path5140" />
      <path
         d="m 13.809677,55.261204 h -3.62376 v 1.988564 q 0,0.623592 0.09008,0.803741 0.09007,0.180148 0.34644,0.180148 0.318724,0 0.422656,-0.235579 0.110861,-0.242508 0.110861,-0.928458 v -1.212539 h 2.653728 v 0.679022 q 0,0.852241 -0.110861,1.309542 -0.103932,0.4573 -0.498873,0.97696 -0.394941,0.519659 -1.004675,0.782954 -0.602805,0.256365 -1.517406,0.256365 -0.8868858,0 -1.5659077,-0.256365 Q 8.4329325,59.349193 8.0518488,58.90575 7.6776938,58.455379 7.5321892,57.921862 7.3866845,57.381416 7.3866845,56.355954 V 53.67451 q 0,-1.20561 0.3256533,-1.898489 0.3256534,-0.699808 1.0670344,-1.067035 0.741381,-0.374155 1.7044838,-0.374155 1.177895,0 1.940062,0.450372 0.769096,0.443443 1.073963,1.184824 0.311796,0.734452 0.311796,2.07171 z m -2.806162,-1.496619 v -0.672093 q 0,-0.713666 -0.07622,-0.92153 -0.07622,-0.207864 -0.311795,-0.207864 -0.29101,0 -0.360298,0.180149 -0.06929,0.17322 -0.06929,0.949245 v 0.672093 z"
         style="font-style:normal;font-variant:normal;font-weight:normal;font-stretch:normal;font-size:14.19017124px;line-height:1.25;font-family:Impact;-inkscape-font-specification:Impact;fill:#2151a8;fill-opacity:1;stroke-width:0.3547543"
         id="path5142" />
      <path
         d="m 17.57894,50.501123 -0.0485,0.845312 q 0.304867,-0.505802 0.741381,-0.755238 0.443443,-0.256366 1.018533,-0.256366 0.720595,0 1.177895,0.339511 0.457301,0.339511 0.588948,0.859171 0.131647,0.512731 0.131647,1.718341 v 6.443779 h -2.799233 v -6.367562 q 0,-0.949245 -0.06236,-1.157109 -0.06236,-0.207864 -0.34644,-0.207864 -0.297938,0 -0.374155,0.242508 -0.07622,0.235579 -0.07622,1.274898 v 6.215129 h -2.799233 v -9.19451 z"
         style="font-style:normal;font-variant:normal;font-weight:normal;font-stretch:normal;font-size:14.19017124px;line-height:1.25;font-family:Impact;-inkscape-font-specification:Impact;fill:#2151a8;fill-opacity:1;stroke-width:0.3547543"
         id="path5144" />
      <path
         d="m 28.56801,50.501123 v 9.19451 h -2.847735 l 0.0485,-0.762167 q -0.291009,0.464229 -0.720595,0.699808 -0.422656,0.22865 -0.97696,0.22865 -0.63052,0 -1.046248,-0.221721 -0.415727,-0.221722 -0.616662,-0.588948 -0.194007,-0.367226 -0.242508,-0.762167 -0.0485,-0.40187 -0.0485,-1.586694 v -6.201271 h 2.799233 v 6.256701 q 0,1.073963 0.06236,1.274898 0.06929,0.200935 0.360298,0.200935 0.311795,0 0.367226,-0.207864 0.06236,-0.207863 0.06236,-1.337257 v -6.187413 z"
         style="font-style:normal;font-variant:normal;font-weight:normal;font-stretch:normal;font-size:14.19017124px;line-height:1.25;font-family:Impact;-inkscape-font-specification:Impact;fill:#2151a8;fill-opacity:1;stroke-width:0.3547543"
         id="path5146" />
      <path
         d="m 35.926388,55.261204 h -3.62376 v 1.988564 q 0,0.623592 0.09007,0.803741 0.09007,0.180148 0.34644,0.180148 0.318725,0 0.422657,-0.235579 0.11086,-0.242508 0.11086,-0.928458 v -1.212539 h 2.653729 v 0.679022 q 0,0.852241 -0.110861,1.309542 -0.103932,0.4573 -0.498873,0.97696 -0.394942,0.519659 -1.004675,0.782954 -0.602806,0.256365 -1.517406,0.256365 -0.886886,0 -1.565908,-0.256365 Q 30.549643,59.349193 30.168559,58.90575 29.794405,58.455379 29.6489,57.921862 29.503395,57.381416 29.503395,56.355954 V 53.67451 q 0,-1.20561 0.325653,-1.898489 0.325654,-0.699808 1.067035,-1.067035 0.741381,-0.374155 1.704483,-0.374155 1.177895,0 1.940063,0.450372 0.769096,0.443443 1.073963,1.184824 0.311796,0.734452 0.311796,2.07171 z m -2.806162,-1.496619 v -0.672093 q 0,-0.713666 -0.07622,-0.92153 -0.07622,-0.207864 -0.311796,-0.207864 -0.291009,0 -0.360297,0.180149 -0.06929,0.17322 -0.06929,0.949245 v 0.672093 z"
         style="font-style:normal;font-variant:normal;font-weight:normal;font-stretch:normal;font-size:14.19017124px;line-height:1.25;font-family:Impact;-inkscape-font-specification:Impact;fill:#2151a8;fill-opacity:1;stroke-width:0.3547543"
         id="path5148" />
      <path
         d="m 45.058537,53.438931 h -2.480508 v -0.498873 q 0,-0.637449 -0.07622,-0.80374 -0.06929,-0.17322 -0.360297,-0.17322 -0.235579,0 -0.353369,0.159362 -0.117789,0.152434 -0.117789,0.46423 0,0.422656 0.05543,0.623591 0.06236,0.194006 0.353369,0.429585 0.297938,0.23558 1.212539,0.685951 1.219468,0.595876 1.600551,1.122465 0.381084,0.526588 0.381084,1.531263 0,1.122465 -0.291009,1.697555 -0.29101,0.568161 -0.97696,0.879957 -0.679022,0.304867 -1.642125,0.304867 -1.067034,0 -1.829202,-0.332582 -0.755238,-0.332582 -1.039319,-0.900743 -0.28408,-0.568162 -0.28408,-1.718341 v -0.443443 h 2.480508 v 0.582018 q 0,0.741381 0.09007,0.963103 0.097,0.221721 0.374155,0.221721 0.297939,0 0.415728,-0.145504 0.11779,-0.152434 0.11779,-0.630521 0,-0.658235 -0.152434,-0.824526 -0.159362,-0.166291 -1.628267,-0.983889 -1.233325,-0.69288 -1.503548,-1.254112 -0.270223,-0.568161 -0.270223,-1.344186 0,-1.101678 0.291009,-1.621338 0.29101,-0.526588 0.983889,-0.810669 0.699808,-0.284081 1.621338,-0.284081 0.914601,0 1.55205,0.23558 0.644378,0.22865 0.983889,0.609733 0.34644,0.381084 0.415728,0.706737 0.07622,0.325654 0.07622,1.018533 z"
         style="font-style:normal;font-variant:normal;font-weight:normal;font-stretch:normal;font-size:14.19017124px;line-height:1.25;font-family:Impact;-inkscape-font-specification:Impact;fill:#2151a8;fill-opacity:1;stroke-width:0.3547543"
         id="path5150" />
      <path
         d="m 52.430776,50.501123 v 9.19451 h -2.847734 l 0.0485,-0.762167 q -0.291009,0.464229 -0.720594,0.699808 -0.422657,0.22865 -0.97696,0.22865 -0.630521,0 -1.046248,-0.221721 -0.415728,-0.221722 -0.616663,-0.588948 -0.194006,-0.367226 -0.242508,-0.762167 -0.0485,-0.40187 -0.0485,-1.586694 v -6.201271 h 2.799233 v 6.256701 q 0,1.073963 0.06236,1.274898 0.06929,0.200935 0.360297,0.200935 0.311796,0 0.367226,-0.207864 0.06236,-0.207863 0.06236,-1.337257 v -6.187413 z"
         style="font-style:normal;font-variant:normal;font-weight:normal;font-stretch:normal;font-size:14.19017124px;line-height:1.25;font-family:Impact;-inkscape-font-specification:Impact;fill:#2151a8;fill-opacity:1;stroke-width:0.3547543"
         id="path5152" />
      <path
         d="m 56.24854,50.501123 -0.110861,1.20561 q 0.609734,-1.295685 1.766843,-1.371902 v 3.235748 q -0.769096,0 -1.129394,0.207863 -0.360297,0.207864 -0.443443,0.582019 -0.08315,0.367226 -0.08315,1.704484 v 3.630688 h -2.799233 v -9.19451 z"
         style="font-style:normal;font-variant:normal;font-weight:normal;font-stretch:normal;font-size:14.19017124px;line-height:1.25;font-family:Impact;-inkscape-font-specification:Impact;fill:#2151a8;fill-opacity:1;stroke-width:0.3547543"
         id="path5154" />
      <path
         d="M 63.897932,48.477915 V 59.695633 H 61.015553 V 48.477915 Z"
         style="font-style:normal;font-variant:normal;font-weight:normal;font-stretch:normal;font-size:14.19017124px;line-height:1.25;font-family:Impact;-inkscape-font-specification:Impact;fill:#2151a8;fill-opacity:1;stroke-width:0.3547543"
         id="path5156" />
      <path
         d="m 71.235527,55.261204 h -3.62376 v 1.988564 q 0,0.623592 0.09007,0.803741 0.09007,0.180148 0.346439,0.180148 0.318725,0 0.422657,-0.235579 0.110861,-0.242508 0.110861,-0.928458 v -1.212539 h 2.653728 v 0.679022 q 0,0.852241 -0.110861,1.309542 -0.103932,0.4573 -0.498873,0.97696 -0.394941,0.519659 -1.004675,0.782954 -0.602805,0.256365 -1.517406,0.256365 -0.886886,0 -1.565908,-0.256365 -0.679022,-0.256366 -1.060105,-0.699809 -0.374155,-0.450371 -0.51966,-0.983888 -0.145505,-0.540446 -0.145505,-1.565908 V 53.67451 q 0,-1.20561 0.325654,-1.898489 0.325653,-0.699808 1.067034,-1.067035 0.741381,-0.374155 1.704484,-0.374155 1.177895,0 1.940062,0.450372 0.769096,0.443443 1.073963,1.184824 0.311796,0.734452 0.311796,2.07171 z m -2.806162,-1.496619 v -0.672093 q 0,-0.713666 -0.07622,-0.92153 -0.07622,-0.207864 -0.311795,-0.207864 -0.29101,0 -0.360298,0.180149 -0.06929,0.17322 -0.06929,0.949245 v 0.672093 z"
         style="font-style:normal;font-variant:normal;font-weight:normal;font-stretch:normal;font-size:14.19017124px;line-height:1.25;font-family:Impact;-inkscape-font-specification:Impact;fill:#2151a8;fill-opacity:1;stroke-width:0.3547543"
         id="path5158" />
      <path
         d="m 80.367673,53.438931 h -2.480509 v -0.498873 q 0,-0.637449 -0.07622,-0.80374 -0.06929,-0.17322 -0.360298,-0.17322 -0.235579,0 -0.353368,0.159362 -0.11779,0.152434 -0.11779,0.46423 0,0.422656 0.05543,0.623591 0.06236,0.194006 0.353368,0.429585 0.297938,0.23558 1.212539,0.685951 1.219468,0.595876 1.600552,1.122465 0.381083,0.526588 0.381083,1.531263 0,1.122465 -0.291009,1.697555 -0.291009,0.568161 -0.97696,0.879957 -0.679022,0.304867 -1.642124,0.304867 -1.067035,0 -1.829202,-0.332582 Q 75.087931,59.19676 74.803851,58.628599 74.51977,58.060437 74.51977,56.910258 v -0.443443 h 2.480509 v 0.582018 q 0,0.741381 0.09007,0.963103 0.097,0.221721 0.374155,0.221721 0.297938,0 0.415727,-0.145504 0.11779,-0.152434 0.11779,-0.630521 0,-0.658235 -0.152433,-0.824526 -0.159363,-0.166291 -1.628267,-0.983889 -1.233326,-0.69288 -1.503549,-1.254112 -0.270223,-0.568161 -0.270223,-1.344186 0,-1.101678 0.29101,-1.621338 0.291009,-0.526588 0.983889,-0.810669 0.699808,-0.284081 1.621338,-0.284081 0.9146,0 1.552049,0.23558 0.644378,0.22865 0.983889,0.609733 0.34644,0.381084 0.415728,0.706737 0.07622,0.325654 0.07622,1.018533 z"
         style="font-style:normal;font-variant:normal;font-weight:normal;font-stretch:normal;font-size:14.19017124px;line-height:1.25;font-family:Impact;-inkscape-font-specification:Impact;fill:#2151a8;fill-opacity:1;stroke-width:0.3547543"
         id="path5160" />
      <path
         d="m 84.213155,48.477915 v 1.461975 h -2.882378 v -1.461975 z m 0,2.023208 v 9.19451 h -2.882378 v -9.19451 z"
         style="font-style:normal;font-variant:normal;font-weight:normal;font-stretch:normal;font-size:14.19017124px;line-height:1.25;font-family:Impact;-inkscape-font-specification:Impact;fill:#2151a8;fill-opacity:1;stroke-width:0.3547543"
         id="path5162" />
      <path
         d="m 88.16257,49.274726 v 1.448118 h 0.755239 v 1.455047 H 88.16257 v 4.919444 q 0,0.907672 0.09007,1.011604 0.097,0.103932 0.782954,0.103932 v 1.482762 h -1.129393 q -0.956174,0 -1.364973,-0.07622 -0.408799,-0.08315 -0.720594,-0.367226 -0.311796,-0.291009 -0.388013,-0.658235 -0.07622,-0.374155 -0.07622,-1.746057 v -4.670007 h -0.602805 v -1.455047 h 0.602805 v -1.448118 z"
         style="font-style:normal;font-variant:normal;font-weight:normal;font-stretch:normal;font-size:14.19017124px;line-height:1.25;font-family:Impact;-inkscape-font-specification:Impact;fill:#2151a8;fill-opacity:1;stroke-width:0.3547543"
         id="path5164" />
      <path
         d="m 95.874321,55.261204 h -3.62376 v 1.988564 q 0,0.623592 0.09007,0.803741 0.09007,0.180148 0.346439,0.180148 0.318725,0 0.422657,-0.235579 0.110861,-0.242508 0.110861,-0.928458 v -1.212539 h 2.653728 v 0.679022 q 0,0.852241 -0.110861,1.309542 -0.103932,0.4573 -0.498873,0.97696 -0.394941,0.519659 -1.004675,0.782954 -0.602805,0.256365 -1.517406,0.256365 -0.886886,0 -1.565908,-0.256365 -0.679022,-0.256366 -1.060105,-0.699809 -0.374155,-0.450371 -0.51966,-0.983888 -0.145505,-0.540446 -0.145505,-1.565908 V 53.67451 q 0,-1.20561 0.325654,-1.898489 0.325653,-0.699808 1.067034,-1.067035 0.741381,-0.374155 1.704483,-0.374155 1.177896,0 1.940063,0.450372 0.769096,0.443443 1.073963,1.184824 0.311796,0.734452 0.311796,2.07171 z m -2.806162,-1.496619 v -0.672093 q 0,-0.713666 -0.07622,-0.92153 -0.07622,-0.207864 -0.311795,-0.207864 -0.29101,0 -0.360298,0.180149 -0.06929,0.17322 -0.06929,0.949245 v 0.672093 z"
         style="font-style:normal;font-variant:normal;font-weight:normal;font-stretch:normal;font-size:14.19017124px;line-height:1.25;font-family:Impact;-inkscape-font-specification:Impact;fill:#2151a8;fill-opacity:1;stroke-width:0.3547543"
         id="path5166" />
      <path
         d="m 105.65777,48.477915 v 11.217718 h -2.79923 v -0.665164 q -0.40187,0.415727 -0.84531,0.623591 -0.44345,0.207864 -0.92846,0.207864 -0.65131,0 -1.129395,-0.339511 -0.478086,-0.34644 -0.616662,-0.796811 -0.131647,-0.450372 -0.131647,-1.468905 v -4.302781 q 0,-1.060106 0.131647,-1.503549 0.138576,-0.443442 0.623591,-0.776025 0.485016,-0.339511 1.157106,-0.339511 0.51966,0 0.94925,0.187078 0.43651,0.187077 0.78988,0.561232 v -2.605226 z m -2.79923,4.337425 q 0,-0.505802 -0.0901,-0.679022 -0.0831,-0.17322 -0.33951,-0.17322 -0.24944,0 -0.33952,0.159362 -0.0831,0.152434 -0.0831,0.69288 v 4.503716 q 0,0.561233 0.0831,0.741381 0.0832,0.17322 0.31873,0.17322 0.27022,0 0.3603,-0.194006 0.0901,-0.200935 0.0901,-0.970031 z"
         style="font-style:normal;font-variant:normal;font-weight:normal;font-stretch:normal;font-size:14.19017124px;line-height:1.25;font-family:Impact;-inkscape-font-specification:Impact;fill:#2151a8;fill-opacity:1;stroke-width:0.3547543"
         id="path5168" />
      <path
         d="m 113.0023,55.261204 h -3.62376 v 1.988564 q 0,0.623592 0.0901,0.803741 0.0901,0.180148 0.34644,0.180148 0.31873,0 0.42266,-0.235579 0.11086,-0.242508 0.11086,-0.928458 v -1.212539 h 2.65373 v 0.679022 q 0,0.852241 -0.11086,1.309542 -0.10394,0.4573 -0.49888,0.97696 -0.39494,0.519659 -1.00467,0.782954 -0.60281,0.256365 -1.51741,0.256365 -0.88688,0 -1.56591,-0.256365 -0.67902,-0.256366 -1.0601,-0.699809 -0.37416,-0.450371 -0.51966,-0.983888 -0.14551,-0.540446 -0.14551,-1.565908 V 53.67451 q 0,-1.20561 0.32566,-1.898489 0.32565,-0.699808 1.06703,-1.067035 0.74138,-0.374155 1.70448,-0.374155 1.1779,0 1.94007,0.450372 0.76909,0.443443 1.07396,1.184824 0.3118,0.734452 0.3118,2.07171 z m -2.80617,-1.496619 v -0.672093 q 0,-0.713666 -0.0762,-0.92153 -0.0762,-0.207864 -0.3118,-0.207864 -0.29101,0 -0.3603,0.180149 -0.0693,0.17322 -0.0693,0.949245 v 0.672093 z"
         style="font-style:normal;font-variant:normal;font-weight:normal;font-stretch:normal;font-size:14.19017124px;line-height:1.25;font-family:Impact;-inkscape-font-specification:Impact;fill:#2151a8;fill-opacity:1;stroke-width:0.3547543"
         id="path5170" />
      <path
         d="m 119.26594,50.501123 -0.0485,0.845312 q 0.30487,-0.505802 0.74139,-0.755238 0.44344,-0.256366 1.01853,-0.256366 0.72059,0 1.17789,0.339511 0.4573,0.339511 0.58895,0.859171 0.13165,0.512731 0.13165,1.718341 v 6.443779 h -2.79923 v -6.367562 q 0,-0.949245 -0.0624,-1.157109 -0.0624,-0.207864 -0.34644,-0.207864 -0.29794,0 -0.37416,0.242508 -0.0762,0.235579 -0.0762,1.274898 v 6.215129 h -2.79923 v -9.19451 z"
         style="font-style:normal;font-variant:normal;font-weight:normal;font-stretch:normal;font-size:14.19017124px;line-height:1.25;font-family:Impact;-inkscape-font-specification:Impact;fill:#2151a8;fill-opacity:1;stroke-width:0.3547543"
         id="path5172" />
      <path
         d="m 130.17878,53.729941 v 2.251858 q 0,1.240254 -0.12472,1.822273 -0.12472,0.57509 -0.53352,1.080892 -0.4088,0.498873 -1.05317,0.741381 -0.63745,0.235579 -1.46891,0.235579 -0.92846,0 -1.57283,-0.200935 -0.64438,-0.207864 -1.00468,-0.616663 -0.35337,-0.415727 -0.5058,-0.997746 -0.15244,-0.588948 -0.15244,-1.759914 v -2.35579 q 0,-1.281827 0.27716,-2.002422 0.27715,-0.720594 0.99774,-1.157108 0.7206,-0.436515 1.84306,-0.436515 0.94232,0 1.61441,0.284081 0.67902,0.277152 1.04625,0.727523 0.36723,0.450372 0.49887,0.928459 0.13858,0.478087 0.13858,1.455047 z m -2.79923,-0.69288 q 0,-0.706737 -0.0762,-0.886885 -0.0762,-0.187078 -0.32565,-0.187078 -0.24944,0 -0.33259,0.187078 -0.0831,0.180148 -0.0831,0.886885 v 4.150348 q 0,0.651307 0.0831,0.852242 0.0832,0.194006 0.32566,0.194006 0.24943,0 0.32565,-0.180148 0.0831,-0.180149 0.0831,-0.776025 z"
         style="font-style:normal;font-variant:normal;font-weight:normal;font-stretch:normal;font-size:14.19017124px;line-height:1.25;font-family:Impact;-inkscape-font-specification:Impact;fill:#2151a8;fill-opacity:1;stroke-width:0.3547543"
         id="path5174" />
      <path
         d="m 134.05891,49.274726 v 1.448118 h 0.75524 v 1.455047 h -0.75524 v 4.919444 q 0,0.907672 0.0901,1.011604 0.097,0.103932 0.78296,0.103932 v 1.482762 h -1.1294 q -0.95617,0 -1.36497,-0.07622 -0.4088,-0.08315 -0.72059,-0.367226 -0.3118,-0.291009 -0.38802,-0.658235 -0.0762,-0.374155 -0.0762,-1.746057 v -4.670007 h -0.60281 v -1.455047 h 0.60281 v -1.448118 z"
         style="font-style:normal;font-variant:normal;font-weight:normal;font-stretch:normal;font-size:14.19017124px;line-height:1.25;font-family:Impact;-inkscape-font-specification:Impact;fill:#2151a8;fill-opacity:1;stroke-width:0.3547543"
         id="path5176" />
      <path
         d="m 138.23004,50.501123 -0.11086,1.20561 q 0.60973,-1.295685 1.76684,-1.371902 v 3.235748 q -0.7691,0 -1.12939,0.207863 -0.3603,0.207864 -0.44345,0.582019 -0.0831,0.367226 -0.0831,1.704484 v 3.630688 h -2.79923 v -9.19451 z"
         style="font-style:normal;font-variant:normal;font-weight:normal;font-stretch:normal;font-size:14.19017124px;line-height:1.25;font-family:Impact;-inkscape-font-specification:Impact;fill:#2151a8;fill-opacity:1;stroke-width:0.3547543"
         id="path5178" />
      <path
         d="m 146.84254,55.261204 h -3.62376 v 1.988564 q 0,0.623592 0.0901,0.803741 0.0901,0.180148 0.34644,0.180148 0.31873,0 0.42266,-0.235579 0.11086,-0.242508 0.11086,-0.928458 v -1.212539 h 2.65373 v 0.679022 q 0,0.852241 -0.11086,1.309542 -0.10394,0.4573 -0.49888,0.97696 -0.39494,0.519659 -1.00467,0.782954 -0.60281,0.256365 -1.51741,0.256365 -0.88688,0 -1.56591,-0.256365 -0.67902,-0.256366 -1.0601,-0.699809 -0.37416,-0.450371 -0.51966,-0.983888 -0.14551,-0.540446 -0.14551,-1.565908 V 53.67451 q 0,-1.20561 0.32566,-1.898489 0.32565,-0.699808 1.06703,-1.067035 0.74138,-0.374155 1.70449,-0.374155 1.17789,0 1.94006,0.450372 0.76909,0.443443 1.07396,1.184824 0.3118,0.734452 0.3118,2.07171 z m -2.80616,-1.496619 v -0.672093 q 0,-0.713666 -0.0762,-0.92153 -0.0762,-0.207864 -0.3118,-0.207864 -0.29101,0 -0.36029,0.180149 -0.0693,0.17322 -0.0693,0.949245 v 0.672093 z"
         style="font-style:normal;font-variant:normal;font-weight:normal;font-stretch:normal;font-size:14.19017124px;line-height:1.25;font-family:Impact;-inkscape-font-specification:Impact;fill:#2151a8;fill-opacity:1;stroke-width:0.3547543"
         id="path5180" />
      <path
         d="m 156.59827,55.261204 h -3.62376 v 1.988564 q 0,0.623592 0.0901,0.803741 0.0901,0.180148 0.34644,0.180148 0.31872,0 0.42266,-0.235579 0.11086,-0.242508 0.11086,-0.928458 v -1.212539 h 2.65372 v 0.679022 q 0,0.852241 -0.11086,1.309542 -0.10393,0.4573 -0.49887,0.97696 -0.39494,0.519659 -1.00467,0.782954 -0.60281,0.256365 -1.51741,0.256365 -0.88689,0 -1.56591,-0.256365 -0.67902,-0.256366 -1.0601,-0.699809 -0.37416,-0.450371 -0.51966,-0.983888 -0.14551,-0.540446 -0.14551,-1.565908 V 53.67451 q 0,-1.20561 0.32565,-1.898489 0.32566,-0.699808 1.06704,-1.067035 0.74138,-0.374155 1.70448,-0.374155 1.1779,0 1.94007,0.450372 0.76909,0.443443 1.07396,1.184824 0.31179,0.734452 0.31179,2.07171 z m -2.80616,-1.496619 v -0.672093 q 0,-0.713666 -0.0762,-0.92153 -0.0762,-0.207864 -0.3118,-0.207864 -0.29101,0 -0.3603,0.180149 -0.0693,0.17322 -0.0693,0.949245 v 0.672093 z m 1.96085,-5.757828 -2.27957,1.877703 h -1.40655 l 1.21947,-1.877703 z"
         style="font-style:normal;font-variant:normal;font-weight:normal;font-stretch:normal;font-size:14.19017124px;line-height:1.25;font-family:Impact;-inkscape-font-specification:Impact;fill:#2151a8;fill-opacity:1;stroke-width:0.3547543"
         id="path5182" />
      <path
         d="m 160.40219,48.477915 v 11.217718 h -2.88238 V 48.477915 Z"
         style="font-style:normal;font-variant:normal;font-weight:normal;font-stretch:normal;font-size:14.19017124px;line-height:1.25;font-family:Impact;-inkscape-font-specification:Impact;fill:#2151a8;fill-opacity:1;stroke-width:0.3547543"
         id="path5184" />
      <path
         d="m 167.73977,55.261204 h -3.62376 v 1.988564 q 0,0.623592 0.0901,0.803741 0.0901,0.180148 0.34644,0.180148 0.31873,0 0.42266,-0.235579 0.11086,-0.242508 0.11086,-0.928458 v -1.212539 h 2.65373 v 0.679022 q 0,0.852241 -0.11086,1.309542 -0.10393,0.4573 -0.49888,0.97696 -0.39494,0.519659 -1.00467,0.782954 -0.60281,0.256365 -1.51741,0.256365 -0.88688,0 -1.5659,-0.256365 -0.67903,-0.256366 -1.06011,-0.699809 -0.37415,-0.450371 -0.51966,-0.983888 -0.1455,-0.540446 -0.1455,-1.565908 V 53.67451 q 0,-1.20561 0.32565,-1.898489 0.32565,-0.699808 1.06703,-1.067035 0.74139,-0.374155 1.70449,-0.374155 1.17789,0 1.94006,0.450372 0.7691,0.443443 1.07396,1.184824 0.3118,0.734452 0.3118,2.07171 z m -2.80616,-1.496619 v -0.672093 q 0,-0.713666 -0.0762,-0.92153 -0.0762,-0.207864 -0.3118,-0.207864 -0.291,0 -0.36029,0.180149 -0.0693,0.17322 -0.0693,0.949245 v 0.672093 z"
         style="font-style:normal;font-variant:normal;font-weight:normal;font-stretch:normal;font-size:14.19017124px;line-height:1.25;font-family:Impact;-inkscape-font-specification:Impact;fill:#2151a8;fill-opacity:1;stroke-width:0.3547543"
         id="path5186" />
      <path
         d="m 174.44685,50.501123 -1.30954,9.19451 h -3.65148 l -1.40654,-9.19451 h 2.50129 l 0.78295,6.707073 q 0.0901,-0.734453 0.30487,-3.602973 0.12472,-1.600552 0.27715,-3.1041 z"
         style="font-style:normal;font-variant:normal;font-weight:normal;font-stretch:normal;font-size:14.19017124px;line-height:1.25;font-family:Impact;-inkscape-font-specification:Impact;fill:#2151a8;fill-opacity:1;stroke-width:0.3547543"
         id="path5188" />
      <path
         d="m 177.37081,54.062523 h -2.62602 V 53.44586 q 0,-1.067034 0.24251,-1.642124 0.24944,-0.582019 0.99082,-1.025462 0.74138,-0.443443 1.9262,-0.443443 1.42041,0 2.141,0.505802 0.7206,0.498874 0.8661,1.233326 0.1455,0.727523 0.1455,3.007097 v 4.614577 h -2.72301 v -0.817598 q -0.25637,0.491945 -0.66517,0.741381 -0.40187,0.242508 -0.9631,0.242508 -0.73445,0 -1.35111,-0.408799 -0.60974,-0.415728 -0.60974,-1.808415 v -0.755239 q 0,-1.03239 0.32566,-1.406545 0.32565,-0.374155 1.61441,-0.873028 1.37883,-0.540446 1.47583,-0.727524 0.097,-0.187077 0.097,-0.762167 0,-0.720595 -0.11086,-0.935387 -0.10393,-0.221722 -0.35337,-0.221722 -0.28408,0 -0.35337,0.187078 -0.0693,0.180148 -0.0693,0.949245 z m 0.88688,1.261041 q -0.67209,0.491944 -0.78295,0.824526 -0.10393,0.332582 -0.10393,0.956174 0,0.713666 0.0901,0.921529 0.097,0.207864 0.37416,0.207864 0.26329,0 0.33951,-0.159362 0.0831,-0.166291 0.0831,-0.859171 z"
         style="font-style:normal;font-variant:normal;font-weight:normal;font-stretch:normal;font-size:14.19017124px;line-height:1.25;font-family:Impact;-inkscape-font-specification:Impact;fill:#2151a8;fill-opacity:1;stroke-width:0.3547543"
         id="path5190" />
      <path
         d="m 188.38066,50.501123 v 7.081228 q 0,1.43426 -0.0693,1.856917 -0.0624,0.415727 -0.46423,0.879956 -0.40187,0.471158 -1.12246,0.713666 -0.71367,0.249437 -1.80149,0.249437 -1.33726,0 -2.14793,-0.457301 -0.81067,-0.450371 -0.83838,-1.7807 h 2.71609 q 0,0.609734 0.44344,0.609734 0.31872,0 0.42266,-0.187077 0.10393,-0.187078 0.10393,-0.782954 v -0.69288 q -0.3603,0.325654 -0.76217,0.491945 -0.39494,0.166291 -0.83146,0.166291 -0.75523,0 -1.24718,-0.304867 -0.48501,-0.304867 -0.66516,-0.796811 -0.18015,-0.498874 -0.18015,-1.413474 v -3.339679 q 0,-1.309543 0.47116,-1.884633 0.47115,-0.57509 1.43426,-0.57509 0.52659,0 0.95617,0.214793 0.43651,0.214793 0.77603,0.644378 l 0.20093,-0.692879 z m -2.80616,2.438935 q 0,-0.63052 -0.0762,-0.80374 -0.0693,-0.17322 -0.31873,-0.17322 -0.2425,0 -0.34644,0.200935 -0.097,0.194007 -0.097,0.776025 v 3.090243 q 0,0.616662 0.0762,0.80374 0.0762,0.180148 0.31872,0.180148 0.27715,0 0.3603,-0.221721 0.0831,-0.221721 0.0831,-1.004675 z"
         style="font-style:normal;font-variant:normal;font-weight:normal;font-stretch:normal;font-size:14.19017124px;line-height:1.25;font-family:Impact;-inkscape-font-specification:Impact;fill:#2151a8;fill-opacity:1;stroke-width:0.3547543"
         id="path5192" />
      <path
         d="m 195.73211,55.261204 h -3.62376 v 1.988564 q 0,0.623592 0.0901,0.803741 0.0901,0.180148 0.34644,0.180148 0.31873,0 0.42266,-0.235579 0.11086,-0.242508 0.11086,-0.928458 v -1.212539 h 2.65373 v 0.679022 q 0,0.852241 -0.11086,1.309542 -0.10393,0.4573 -0.49887,0.97696 -0.39495,0.519659 -1.00468,0.782954 -0.60281,0.256365 -1.51741,0.256365 -0.88688,0 -1.5659,-0.256365 -0.67903,-0.256366 -1.06011,-0.699809 -0.37415,-0.450371 -0.51966,-0.983888 -0.1455,-0.540446 -0.1455,-1.565908 V 53.67451 q 0,-1.20561 0.32565,-1.898489 0.32565,-0.699808 1.06703,-1.067035 0.74139,-0.374155 1.70449,-0.374155 1.17789,0 1.94006,0.450372 0.7691,0.443443 1.07396,1.184824 0.3118,0.734452 0.3118,2.07171 z m -2.80616,-1.496619 v -0.672093 q 0,-0.713666 -0.0762,-0.92153 -0.0762,-0.207864 -0.3118,-0.207864 -0.291,0 -0.36029,0.180149 -0.0693,0.17322 -0.0693,0.949245 v 0.672093 z"
         style="font-style:normal;font-variant:normal;font-weight:normal;font-stretch:normal;font-size:14.19017124px;line-height:1.25;font-family:Impact;-inkscape-font-specification:Impact;fill:#2151a8;fill-opacity:1;stroke-width:0.3547543"
         id="path5194" />
      <path
         d="m 205.51556,48.477915 v 11.217718 h -2.79923 v -0.665164 q -0.40187,0.415727 -0.84531,0.623591 -0.44345,0.207864 -0.92846,0.207864 -0.65131,0 -1.1294,-0.339511 -0.47808,-0.34644 -0.61666,-0.796811 -0.13165,-0.450372 -0.13165,-1.468905 v -4.302781 q 0,-1.060106 0.13165,-1.503549 0.13858,-0.443442 0.62359,-0.776025 0.48502,-0.339511 1.15711,-0.339511 0.51966,0 0.94925,0.187078 0.43651,0.187077 0.78988,0.561232 v -2.605226 z m -2.79923,4.337425 q 0,-0.505802 -0.0901,-0.679022 -0.0831,-0.17322 -0.33951,-0.17322 -0.24943,0 -0.33951,0.159362 -0.0831,0.152434 -0.0831,0.69288 v 4.503716 q 0,0.561233 0.0831,0.741381 0.0832,0.17322 0.31873,0.17322 0.27022,0 0.36029,-0.194006 0.0901,-0.200935 0.0901,-0.970031 z"
         style="font-style:normal;font-variant:normal;font-weight:normal;font-stretch:normal;font-size:14.19017124px;line-height:1.25;font-family:Impact;-inkscape-font-specification:Impact;fill:#2151a8;fill-opacity:1;stroke-width:0.3547543"
         id="path5196" />
      <path
         d="m 212.86008,55.261204 h -3.62376 v 1.988564 q 0,0.623592 0.0901,0.803741 0.0901,0.180148 0.34644,0.180148 0.31872,0 0.42266,-0.235579 0.11086,-0.242508 0.11086,-0.928458 v -1.212539 h 2.65372 v 0.679022 q 0,0.852241 -0.11086,1.309542 -0.10393,0.4573 -0.49887,0.97696 -0.39494,0.519659 -1.00467,0.782954 -0.60281,0.256365 -1.51741,0.256365 -0.88689,0 -1.56591,-0.256365 -0.67902,-0.256366 -1.0601,-0.699809 -0.37416,-0.450371 -0.51966,-0.983888 -0.14551,-0.540446 -0.14551,-1.565908 V 53.67451 q 0,-1.20561 0.32566,-1.898489 0.32565,-0.699808 1.06703,-1.067035 0.74138,-0.374155 1.70448,-0.374155 1.1779,0 1.94007,0.450372 0.76909,0.443443 1.07396,1.184824 0.31179,0.734452 0.31179,2.07171 z m -2.80616,-1.496619 v -0.672093 q 0,-0.713666 -0.0762,-0.92153 -0.0762,-0.207864 -0.3118,-0.207864 -0.29101,0 -0.3603,0.180149 -0.0693,0.17322 -0.0693,0.949245 v 0.672093 z"
         style="font-style:normal;font-variant:normal;font-weight:normal;font-stretch:normal;font-size:14.19017124px;line-height:1.25;font-family:Impact;-inkscape-font-specification:Impact;fill:#2151a8;fill-opacity:1;stroke-width:0.3547543"
         id="path5198" />
    </g>
    <g
       aria-label="
Berger Belge Malinois,
"
       style="font-style:normal;font-weight:normal;font-size:10.58333302px;line-height:1.25;font-family:sans-serif;letter-spacing:0px;word-spacing:0px;fill:#2151a8;fill-opacity:1;stroke:none;stroke-width:0.26458332"
       id="text4726-1">
      <path
         d="m -11.608884,63.602705 h 5.2089846 q 2.4680664,0 3.7331054,0.384473 1.2774414,0.384472 2.05878906,1.562695 0.78134764,1.16582 0.78134764,3.770312 0,1.761133 -0.55810546,2.455664 -0.54570311,0.694532 -2.17041014,1.066602 1.81074218,0.409277 2.45566404,1.364258 0.64492187,0.942578 0.64492187,2.902148 v 1.860352 q 0,2.033984 -0.47128906,3.013769 -0.45888671,0.979785 -1.47587885,1.339453 -1.0169922,0.359668 -4.1671875,0.359668 h -6.0399416 z m 5.221387,3.435449 v 4.464844 q 0.3348632,-0.0124 0.5208984,-0.0124 0.7689453,0 0.9797851,-0.37207 0.2108399,-0.384473 0.2108399,-2.17041 0,-0.942578 -0.1736328,-1.314648 -0.1736329,-0.384473 -0.4588868,-0.483692 -0.2728515,-0.09922 -1.0790038,-0.111621 z m 0,7.590234 v 5.618262 q 1.1038085,-0.03721 1.4014648,-0.347266 0.3100586,-0.310058 0.3100586,-1.525488 v -1.872754 q 0,-1.289844 -0.2728516,-1.562695 -0.2728515,-0.272852 -1.4386718,-0.310059 z"
         style="font-style:normal;font-variant:normal;font-weight:normal;font-stretch:normal;font-family:Impact;-inkscape-font-specification:Impact;fill:#2151a8;fill-opacity:1;stroke-width:0.26458332"
         id="path5201" />
      <path
         d="M 13.629885,75.744599 H 7.1434594 v 3.559473 q 0,1.116211 0.1612305,1.438672 0.1612305,0.322461 0.6201172,0.322461 0.5705078,0 0.7565429,-0.42168 0.1984375,-0.434082 0.1984375,-1.661914 v -2.17041 h 4.7500975 v 1.215429 q 0,1.525489 -0.198437,2.344043 -0.186036,0.818555 -0.892969,1.748731 -0.706934,0.930176 -1.79834,1.401465 -1.0790038,0.458886 -2.7161132,0.458886 -1.5875,0 -2.8029296,-0.458886 Q 4.0056665,83.061982 3.3235376,82.268232 2.6538111,81.46208 2.3933618,80.507099 2.1329126,79.539716 2.1329126,77.704169 v -4.799706 q 0,-2.158008 0.5829102,-3.398243 0.5829101,-1.252636 1.9099609,-1.909961 1.3270507,-0.669726 3.0509765,-0.669726 2.1083984,0 3.4726558,0.806152 1.376661,0.79375 1.922364,2.120801 0.558105,1.314648 0.558105,3.708301 z M 8.606936,73.065693 v -1.203027 q 0,-1.277442 -0.1364258,-1.649512 -0.1364258,-0.37207 -0.5581055,-0.37207 -0.5208984,0 -0.6449218,0.322461 -0.1240235,0.310058 -0.1240235,1.699121 v 1.203027 z"
         style="font-style:normal;font-variant:normal;font-weight:normal;font-stretch:normal;font-size:25.39999962px;font-family:Impact;-inkscape-font-specification:Impact;fill:#2151a8;fill-opacity:1;stroke-width:0.26458332"
         id="path5203" />
      <path
         d="m 20.289944,67.224189 -0.198437,2.158008 q 1.091406,-2.319238 3.162597,-2.455664 v 5.791894 q -1.37666,0 -2.021582,0.372071 -0.644921,0.37207 -0.79375,1.041797 -0.148828,0.657324 -0.148828,3.050976 v 6.498828 h -5.010546 v -16.45791 z"
         style="font-style:normal;font-variant:normal;font-weight:normal;font-stretch:normal;font-size:25.39999962px;font-family:Impact;-inkscape-font-specification:Impact;fill:#2151a8;fill-opacity:1;stroke-width:0.26458332"
         id="path5205" />
      <path
         d="m 35.743263,67.224189 v 12.675195 q 0,2.567285 -0.124023,3.323828 -0.111621,0.744141 -0.830957,1.575098 -0.719336,0.843359 -2.00918,1.277441 -1.277441,0.446485 -3.224609,0.446485 -2.393653,0 -3.844727,-0.818555 -1.451074,-0.806152 -1.500683,-3.187402 h 4.861718 q 0,1.091406 0.79375,1.091406 0.570508,0 0.756543,-0.334863 0.186035,-0.334864 0.186035,-1.401465 v -1.240234 q -0.644922,0.58291 -1.364257,0.880566 -0.706934,0.297656 -1.488282,0.297656 -1.351855,0 -2.232422,-0.545703 -0.868164,-0.545703 -1.190625,-1.426269 -0.32246,-0.892969 -0.32246,-2.530078 v -5.97793 q 0,-2.344043 0.843359,-3.373438 0.843359,-1.029394 2.567285,-1.029394 0.942578,0 1.711523,0.384473 0.781348,0.384472 1.389063,1.153418 l 0.359668,-1.240235 z m -5.022949,4.365625 q 0,-1.128613 -0.136426,-1.438672 -0.124023,-0.310058 -0.570508,-0.310058 -0.434082,0 -0.620117,0.359668 -0.173633,0.347265 -0.173633,1.389062 v 5.531445 q 0,1.103809 0.136426,1.438672 0.136426,0.322461 0.570508,0.322461 0.496094,0 0.644922,-0.396875 0.148828,-0.396875 0.148828,-1.79834 z"
         style="font-style:normal;font-variant:normal;font-weight:normal;font-stretch:normal;font-size:25.39999962px;font-family:Impact;-inkscape-font-specification:Impact;fill:#2151a8;fill-opacity:1;stroke-width:0.26458332"
         id="path5207" />
      <path
         d="m 48.902151,75.744599 h -6.486426 v 3.559473 q 0,1.116211 0.16123,1.438672 0.161231,0.322461 0.620118,0.322461 0.570507,0 0.756542,-0.42168 0.198438,-0.434082 0.198438,-1.661914 v -2.17041 h 4.750098 v 1.215429 q 0,1.525489 -0.198438,2.344043 -0.186035,0.818555 -0.892969,1.748731 -0.706933,0.930176 -1.79834,1.401465 -1.079003,0.458886 -2.716113,0.458886 -1.5875,0 -2.802929,-0.458886 -1.21543,-0.458887 -1.897559,-1.252637 -0.669727,-0.806152 -0.930176,-1.761133 -0.260449,-0.967383 -0.260449,-2.80293 v -4.799706 q 0,-2.158008 0.58291,-3.398243 0.58291,-1.252636 1.909961,-1.909961 1.327051,-0.669726 3.050977,-0.669726 2.108398,0 3.472656,0.806152 1.37666,0.79375 1.922363,2.120801 0.558106,1.314648 0.558106,3.708301 z m -5.02295,-2.678906 v -1.203027 q 0,-1.277442 -0.136425,-1.649512 -0.136426,-0.37207 -0.558106,-0.37207 -0.520898,0 -0.644922,0.322461 -0.124023,0.310058 -0.124023,1.699121 v 1.203027 z"
         style="font-style:normal;font-variant:normal;font-weight:normal;font-stretch:normal;font-size:25.39999962px;font-family:Impact;-inkscape-font-specification:Impact;fill:#2151a8;fill-opacity:1;stroke-width:0.26458332"
         id="path5209" />
      <path
         d="m 55.562207,67.224189 -0.198438,2.158008 q 1.091407,-2.319238 3.162598,-2.455664 v 5.791894 q -1.37666,0 -2.021582,0.372071 -0.644922,0.37207 -0.79375,1.041797 -0.148828,0.657324 -0.148828,3.050976 v 6.498828 H 50.55166 v -16.45791 z"
         style="font-style:normal;font-variant:normal;font-weight:normal;font-stretch:normal;font-size:25.39999962px;font-family:Impact;-inkscape-font-specification:Impact;fill:#2151a8;fill-opacity:1;stroke-width:0.26458332"
         id="path5211" />
      <path
         d="m 64.243846,63.602705 h 5.208984 q 2.468067,0 3.733106,0.384473 1.277441,0.384472 2.058789,1.562695 0.781348,1.16582 0.781348,3.770312 0,1.761133 -0.558106,2.455664 -0.545703,0.694532 -2.17041,1.066602 1.810742,0.409277 2.455664,1.364258 0.644922,0.942578 0.644922,2.902148 v 1.860352 q 0,2.033984 -0.471289,3.013769 -0.458887,0.979785 -1.475879,1.339453 -1.016992,0.359668 -4.167188,0.359668 h -6.039941 z m 5.221387,3.435449 v 4.464844 q 0.334863,-0.0124 0.520898,-0.0124 0.768945,0 0.979785,-0.37207 0.21084,-0.384473 0.21084,-2.17041 0,-0.942578 -0.173633,-1.314648 -0.173632,-0.384473 -0.458886,-0.483692 -0.272852,-0.09922 -1.079004,-0.111621 z m 0,7.590234 v 5.618262 q 1.103808,-0.03721 1.401465,-0.347266 0.310058,-0.310058 0.310058,-1.525488 v -1.872754 q 0,-1.289844 -0.272851,-1.562695 -0.272852,-0.272852 -1.438672,-0.310059 z"
         style="font-style:normal;font-variant:normal;font-weight:normal;font-stretch:normal;font-size:25.39999962px;font-family:Impact;-inkscape-font-specification:Impact;fill:#2151a8;fill-opacity:1;stroke-width:0.26458332"
         id="path5213" />
      <path
         d="m 89.482614,75.744599 h -6.486426 v 3.559473 q 0,1.116211 0.161231,1.438672 0.16123,0.322461 0.620117,0.322461 0.570508,0 0.756543,-0.42168 0.198437,-0.434082 0.198437,-1.661914 v -2.17041 h 4.750098 v 1.215429 q 0,1.525489 -0.198438,2.344043 -0.186035,0.818555 -0.892968,1.748731 -0.706934,0.930176 -1.79834,1.401465 -1.079004,0.458886 -2.716113,0.458886 -1.5875,0 -2.80293,-0.458886 -1.21543,-0.458887 -1.897559,-1.252637 -0.669726,-0.806152 -0.930175,-1.761133 -0.26045,-0.967383 -0.26045,-2.80293 v -4.799706 q 0,-2.158008 0.582911,-3.398243 0.58291,-1.252636 1.909961,-1.909961 1.32705,-0.669726 3.050976,-0.669726 2.108398,0 3.472656,0.806152 1.37666,0.79375 1.922363,2.120801 0.558106,1.314648 0.558106,3.708301 z m -5.022949,-2.678906 v -1.203027 q 0,-1.277442 -0.136426,-1.649512 -0.136426,-0.37207 -0.558105,-0.37207 -0.520899,0 -0.644922,0.322461 -0.124024,0.310058 -0.124024,1.699121 v 1.203027 z"
         style="font-style:normal;font-variant:normal;font-weight:normal;font-stretch:normal;font-size:25.39999962px;font-family:Impact;-inkscape-font-specification:Impact;fill:#2151a8;fill-opacity:1;stroke-width:0.26458332"
         id="path5215" />
      <path
         d="M 96.291502,63.602705 V 83.682099 H 91.132127 V 63.602705 Z"
         style="font-style:normal;font-variant:normal;font-weight:normal;font-stretch:normal;font-size:25.39999962px;font-family:Impact;-inkscape-font-specification:Impact;fill:#2151a8;fill-opacity:1;stroke-width:0.26458332"
         id="path5217" />
      <path
         d="m 109.46279,67.224189 v 12.675195 q 0,2.567285 -0.12402,3.323828 -0.11162,0.744141 -0.83096,1.575098 -0.71934,0.843359 -2.00918,1.277441 -1.27744,0.446485 -3.22461,0.446485 -2.39365,0 -3.844725,-0.818555 -1.451074,-0.806152 -1.500683,-3.187402 h 4.861718 q 0,1.091406 0.79375,1.091406 0.57051,0 0.75654,-0.334863 0.18604,-0.334864 0.18604,-1.401465 v -1.240234 q -0.64492,0.58291 -1.36426,0.880566 -0.70693,0.297656 -1.48828,0.297656 -1.35186,0 -2.232422,-0.545703 -0.868164,-0.545703 -1.190625,-1.426269 -0.322461,-0.892969 -0.322461,-2.530078 v -5.97793 q 0,-2.344043 0.843359,-3.373438 0.843359,-1.029394 2.567289,-1.029394 0.94257,0 1.71152,0.384473 0.78135,0.384472 1.38906,1.153418 l 0.35967,-1.240235 z m -5.02295,4.365625 q 0,-1.128613 -0.13642,-1.438672 -0.12403,-0.310058 -0.57051,-0.310058 -0.43408,0 -0.62012,0.359668 -0.17363,0.347265 -0.17363,1.389062 v 5.531445 q 0,1.103809 0.13642,1.438672 0.13643,0.322461 0.57051,0.322461 0.4961,0 0.64492,-0.396875 0.14883,-0.396875 0.14883,-1.79834 z"
         style="font-style:normal;font-variant:normal;font-weight:normal;font-stretch:normal;font-size:25.39999962px;font-family:Impact;-inkscape-font-specification:Impact;fill:#2151a8;fill-opacity:1;stroke-width:0.26458332"
         id="path5219" />
      <path
         d="m 122.62168,75.744599 h -6.48642 v 3.559473 q 0,1.116211 0.16123,1.438672 0.16123,0.322461 0.62011,0.322461 0.57051,0 0.75655,-0.42168 0.19843,-0.434082 0.19843,-1.661914 v -2.17041 h 4.7501 v 1.215429 q 0,1.525489 -0.19843,2.344043 -0.18604,0.818555 -0.89297,1.748731 -0.70694,0.930176 -1.79834,1.401465 -1.07901,0.458886 -2.71612,0.458886 -1.5875,0 -2.80293,-0.458886 -1.21543,-0.458887 -1.89755,-1.252637 -0.66973,-0.806152 -0.93018,-1.761133 -0.26045,-0.967383 -0.26045,-2.80293 v -4.799706 q 0,-2.158008 0.58291,-3.398243 0.58291,-1.252636 1.90996,-1.909961 1.32705,-0.669726 3.05098,-0.669726 2.1084,0 3.47265,0.806152 1.37666,0.79375 1.92237,2.120801 0.5581,1.314648 0.5581,3.708301 z m -5.02295,-2.678906 v -1.203027 q 0,-1.277442 -0.13642,-1.649512 -0.13643,-0.37207 -0.55811,-0.37207 -0.5209,0 -0.64492,0.322461 -0.12402,0.310058 -0.12402,1.699121 v 1.203027 z"
         style="font-style:normal;font-variant:normal;font-weight:normal;font-stretch:normal;font-size:25.39999962px;font-family:Impact;-inkscape-font-specification:Impact;fill:#2151a8;fill-opacity:1;stroke-width:0.26458332"
         id="path5221" />
      <path
         d="m 144.9955,63.602705 v 20.079394 h -4.56406 V 70.126338 l -1.82314,13.555761 h -3.23701 l -1.92237,-13.245703 v 13.245703 h -4.56406 V 63.602705 h 6.75928 q 0.29765,1.810742 0.63252,4.266406 l 0.71933,5.109766 1.19063,-9.376172 z"
         style="font-style:normal;font-variant:normal;font-weight:normal;font-stretch:normal;font-size:25.39999962px;font-family:Impact;-inkscape-font-specification:Impact;fill:#2151a8;fill-opacity:1;stroke-width:0.26458332"
         id="path5223" />
      <path
         d="m 151.41991,73.598994 h -4.70049 v -1.103809 q 0,-1.909961 0.43409,-2.939355 0.44648,-1.041797 1.77353,-1.835547 1.32705,-0.79375 3.44785,-0.79375 2.54248,0 3.83233,0.905371 1.28984,0.892969 1.55029,2.207617 0.26045,1.302246 0.26045,5.382617 v 8.259961 h -4.87412 v -1.463476 q -0.45889,0.880566 -1.19063,1.32705 -0.71933,0.434082 -1.72392,0.434082 -1.31465,0 -2.41846,-0.731738 -1.09141,-0.744141 -1.09141,-3.237012 V 78.65915 q 0,-1.847949 0.58291,-2.517676 0.58291,-0.669726 2.88975,-1.562695 2.46807,-0.967383 2.6417,-1.302246 0.17363,-0.334863 0.17363,-1.364258 0,-1.289844 -0.19843,-1.674316 -0.18604,-0.396875 -0.63252,-0.396875 -0.5085,0 -0.63252,0.334863 -0.12403,0.322461 -0.12403,1.699121 z m 1.5875,2.257226 q -1.20302,0.880567 -1.40146,1.475879 -0.18604,0.595313 -0.18604,1.711524 0,1.277441 0.16123,1.649511 0.17364,0.372071 0.66973,0.372071 0.47129,0 0.60771,-0.285254 0.14883,-0.297657 0.14883,-1.537891 z"
         style="font-style:normal;font-variant:normal;font-weight:normal;font-stretch:normal;font-size:25.39999962px;font-family:Impact;-inkscape-font-specification:Impact;fill:#2151a8;fill-opacity:1;stroke-width:0.26458332"
         id="path5225" />
      <path
         d="m 164.90127,63.602705 v 20.079394 h -5.15938 V 63.602705 Z"
         style="font-style:normal;font-variant:normal;font-weight:normal;font-stretch:normal;font-size:25.39999962px;font-family:Impact;-inkscape-font-specification:Impact;fill:#2151a8;fill-opacity:1;stroke-width:0.26458332"
         id="path5227" />
      <path
         d="m 171.84658,63.602705 v 2.616894 h -5.15938 v -2.616894 z m 0,3.621484 v 16.45791 h -5.15938 v -16.45791 z"
         style="font-style:normal;font-variant:normal;font-weight:normal;font-stretch:normal;font-size:25.39999962px;font-family:Impact;-inkscape-font-specification:Impact;fill:#2151a8;fill-opacity:1;stroke-width:0.26458332"
         id="path5229" />
      <path
         d="m 178.72988,67.224189 -0.0868,1.513086 q 0.54571,-0.905371 1.32705,-1.351855 0.79375,-0.458887 1.82315,-0.458887 1.28984,0 2.1084,0.607715 0.81855,0.607715 1.0542,1.53789 0.23564,0.917774 0.23564,3.075782 v 11.534179 h -5.01055 V 72.284345 q 0,-1.699121 -0.11162,-2.071191 -0.11162,-0.37207 -0.62011,-0.37207 -0.53331,0 -0.66973,0.434082 -0.13643,0.421679 -0.13643,2.282031 v 11.124902 h -5.01054 v -16.45791 z"
         style="font-style:normal;font-variant:normal;font-weight:normal;font-stretch:normal;font-size:25.39999962px;font-family:Impact;-inkscape-font-specification:Impact;fill:#2151a8;fill-opacity:1;stroke-width:0.26458332"
         id="path5231" />
      <path
         d="m 198.26358,73.003681 v 4.030762 q 0,2.220019 -0.22325,3.261816 -0.22324,1.029395 -0.95498,1.934766 -0.73173,0.892969 -1.88515,1.327051 -1.14102,0.421679 -2.6293,0.421679 -1.66191,0 -2.81533,-0.359668 -1.15342,-0.37207 -1.79834,-1.103808 -0.63252,-0.744141 -0.90537,-1.785938 -0.27285,-1.054199 -0.27285,-3.150195 v -4.216797 q 0,-2.294433 0.49609,-3.584277 0.49609,-1.289844 1.78594,-2.071191 1.28984,-0.781348 3.29902,-0.781348 1.68672,0 2.88975,0.508496 1.21543,0.496094 1.87275,1.302246 0.65733,0.806152 0.89297,1.661914 0.24805,0.855762 0.24805,2.604492 z m -5.01055,-1.240234 q 0,-1.265039 -0.13643,-1.5875 -0.13642,-0.334863 -0.58291,-0.334863 -0.44648,0 -0.59531,0.334863 -0.14883,0.322461 -0.14883,1.5875 v 7.429004 q 0,1.16582 0.14883,1.525488 0.14883,0.347266 0.58291,0.347266 0.44649,0 0.58291,-0.322461 0.14883,-0.322461 0.14883,-1.389063 z"
         style="font-style:normal;font-variant:normal;font-weight:normal;font-stretch:normal;font-size:25.39999962px;font-family:Impact;-inkscape-font-specification:Impact;fill:#2151a8;fill-opacity:1;stroke-width:0.26458332"
         id="path5233" />
      <path
         d="m 205.08486,63.602705 v 2.616894 h -5.15937 v -2.616894 z m 0,3.621484 v 16.45791 h -5.15937 v -16.45791 z"
         style="font-style:normal;font-variant:normal;font-weight:normal;font-stretch:normal;font-size:25.39999962px;font-family:Impact;-inkscape-font-specification:Impact;fill:#2151a8;fill-opacity:1;stroke-width:0.26458332"
         id="path5235" />
      <path
         d="m 217.10273,72.482783 h -4.44004 v -0.892969 q 0,-1.141015 -0.13642,-1.438672 -0.12403,-0.310058 -0.64493,-0.310058 -0.42168,0 -0.63252,0.285254 -0.21083,0.272851 -0.21083,0.830957 0,0.756543 0.0992,1.116211 0.11162,0.347265 0.63252,0.768945 0.5333,0.42168 2.17041,1.227832 2.18282,1.066601 2.86494,2.009179 0.68213,0.942579 0.68213,2.740918 0,2.00918 -0.52089,3.038575 -0.5209,1.016992 -1.74874,1.575097 -1.21542,0.545703 -2.93935,0.545703 -1.90996,0 -3.27422,-0.595312 -1.35185,-0.595313 -1.86035,-1.612305 -0.5085,-1.016992 -0.5085,-3.075781 v -0.79375 h 4.44004 v 1.041797 q 0,1.327051 0.16123,1.723926 0.17364,0.396875 0.66973,0.396875 0.5333,0 0.74414,-0.26045 0.21084,-0.272851 0.21084,-1.128613 0,-1.178223 -0.27285,-1.475879 -0.28526,-0.297656 -2.91455,-1.761133 -2.20762,-1.240234 -2.69131,-2.244824 -0.48369,-1.016992 -0.48369,-2.406054 0,-1.971973 0.5209,-2.902149 0.52089,-0.942578 1.76113,-1.451074 1.25264,-0.508496 2.90215,-0.508496 1.63711,0 2.77812,0.42168 1.15342,0.409277 1.76113,1.091406 0.62012,0.682129 0.74415,1.265039 0.13642,0.58291 0.13642,1.823144 z"
         style="font-style:normal;font-variant:normal;font-weight:normal;font-stretch:normal;font-size:25.39999962px;font-family:Impact;-inkscape-font-specification:Impact;fill:#2151a8;fill-opacity:1;stroke-width:0.26458332"
         id="path5237" />
      <path
         d="m 221.7412,79.750556 v 1.79834 q 0,1.413867 -0.33486,2.319238 -0.33486,0.905371 -1.16582,1.537891 -0.81855,0.632519 -1.86035,0.843359 v -1.438672 q 0.74414,-0.421679 0.84336,-1.128613 h -0.84336 v -3.931543 z"
         style="font-style:normal;font-variant:normal;font-weight:normal;font-stretch:normal;font-size:25.39999962px;font-family:Impact;-inkscape-font-specification:Impact;fill:#2151a8;fill-opacity:1;stroke-width:0.26458332"
         id="path5239" />
    </g>
    <g
       aria-label="

élevant sous l'affixe de
la Société Royale St Hubert"
       style="font-style:normal;font-weight:normal;font-size:10.58333302px;line-height:1.25;font-family:sans-serif;letter-spacing:0px;word-spacing:0px;fill:#2151a8;fill-opacity:1;stroke:none;stroke-width:0.26458332"
       id="text4726-27">
      <path
         d="m -19.267481,94.113977 h -2.702677 v 1.483113 q 0,0.465088 0.06718,0.599447 0.06718,0.134358 0.258382,0.134358 0.237712,0 0.315226,-0.175699 0.08268,-0.180868 0.08268,-0.692465 v -0.904337 h 1.979207 v 0.506429 q 0,0.63562 -0.08268,0.976684 -0.07752,0.341065 -0.372071,0.728638 -0.294555,0.387573 -0.749308,0.583944 -0.449585,0.191203 -1.131714,0.191203 -0.661458,0 -1.167887,-0.191203 -0.506429,-0.191203 -0.790649,-0.521932 -0.279053,-0.335897 -0.387574,-0.733805 -0.10852,-0.403077 -0.10852,-1.167888 v -1.999878 q 0,-0.89917 0.242879,-1.415934 0.242879,-0.521932 0.795817,-0.795817 0.552938,-0.279053 1.27124,-0.279053 0.8785,0 1.44694,0.335897 0.573609,0.330729 0.800985,0.883667 0.232544,0.54777 0.232544,1.545125 z m -2.092895,-1.116211 v -0.501262 q 0,-0.532267 -0.05685,-0.687296 -0.05684,-0.155029 -0.232543,-0.155029 -0.217041,0 -0.268718,0.134358 -0.05168,0.129191 -0.05168,0.707967 v 0.501262 z m 1.462443,-4.294312 -1.700155,1.400432 h -1.049032 l 0.909506,-1.400432 z"
         style="font-style:normal;font-variant:normal;font-weight:normal;font-stretch:normal;font-family:Impact;-inkscape-font-specification:Impact;fill:#2151a8;fill-opacity:1;stroke-width:0.26458332"
         id="path5242" />
      <path
         d="m -16.430445,89.054854 v 8.366414 h -2.149739 v -8.366414 z"
         style="font-style:normal;font-variant:normal;font-weight:normal;font-stretch:normal;font-family:Impact;-inkscape-font-specification:Impact;fill:#2151a8;fill-opacity:1;stroke-width:0.26458332"
         id="path5244" />
      <path
         d="m -10.957911,94.113977 h -2.702677 v 1.483113 q 0,0.465088 0.06718,0.599447 0.06718,0.134358 0.258382,0.134358 0.237712,0 0.315227,-0.175699 0.08268,-0.180868 0.08268,-0.692465 v -0.904337 h 1.979207 v 0.506429 q 0,0.63562 -0.08268,0.976684 -0.07752,0.341065 -0.37207,0.728638 -0.294556,0.387573 -0.749309,0.583944 -0.449584,0.191203 -1.131713,0.191203 -0.661459,0 -1.167888,-0.191203 -0.506429,-0.191203 -0.790649,-0.521932 -0.279053,-0.335897 -0.387573,-0.733805 -0.108521,-0.403077 -0.108521,-1.167888 v -1.999878 q 0,-0.89917 0.242879,-1.415934 0.24288,-0.521932 0.795817,-0.795817 0.552938,-0.279053 1.271241,-0.279053 0.878499,0 1.44694,0.335897 0.573608,0.330729 0.800984,0.883667 0.232544,0.54777 0.232544,1.545125 z m -2.092895,-1.116211 v -0.501262 q 0,-0.532267 -0.05684,-0.687296 -0.05684,-0.155029 -0.232544,-0.155029 -0.217041,0 -0.268718,0.134358 -0.05168,0.129191 -0.05168,0.707967 v 0.501262 z"
         style="font-style:normal;font-variant:normal;font-weight:normal;font-stretch:normal;font-family:Impact;-inkscape-font-specification:Impact;fill:#2151a8;fill-opacity:1;stroke-width:0.26458332"
         id="path5246" />
      <path
         d="m -5.9556327,90.563806 -0.9766845,6.857462 h -2.7233479 l -1.0490319,-6.857462 h 1.8655195 l 0.5839437,5.002278 q 0.067179,-0.54777 0.2273763,-2.687174 0.093017,-1.193726 0.2067057,-2.315104 z"
         style="font-style:normal;font-variant:normal;font-weight:normal;font-stretch:normal;font-family:Impact;-inkscape-font-specification:Impact;fill:#2151a8;fill-opacity:1;stroke-width:0.26458332"
         id="path5248" />
      <path
         d="m -3.7748865,93.219974 h -1.9585367 v -0.45992 q 0,-0.795817 0.1808675,-1.224731 0.1860351,-0.434082 0.7389729,-0.764811 0.5529378,-0.33073 1.4366048,-0.33073 1.0593668,0 1.5968017,0.377238 0.5374349,0.372071 0.6459554,0.919841 0.1085205,0.542602 0.1085205,2.242757 v 3.44165 h -2.0308837 v -0.609782 q -0.1912028,0.366903 -0.4960938,0.552938 -0.2997233,0.180868 -0.7183024,0.180868 -0.5477701,0 -1.0076904,-0.304891 -0.4547525,-0.310059 -0.4547525,-1.348755 v -0.563273 q 0,-0.769979 0.2428792,-1.049032 0.2428792,-0.279053 1.2040608,-0.651123 1.028361,-0.403076 1.100708,-0.542602 0.072347,-0.139527 0.072347,-0.568441 0,-0.537435 -0.082682,-0.697632 -0.077515,-0.165364 -0.2635498,-0.165364 -0.2118734,0 -0.2635498,0.139526 -0.051676,0.134359 -0.051676,0.707967 z m 0.6614583,0.940511 q -0.5012614,0.366903 -0.5839437,0.61495 -0.077515,0.248047 -0.077515,0.713135 0,0.532267 0.067179,0.687296 0.072347,0.155029 0.2790528,0.155029 0.1963704,0 0.2532145,-0.118855 0.062012,-0.124024 0.062012,-0.640788 z"
         style="font-style:normal;font-variant:normal;font-weight:normal;font-stretch:normal;font-family:Impact;-inkscape-font-specification:Impact;fill:#2151a8;fill-opacity:1;stroke-width:0.26458332"
         id="path5250" />
      <path
         d="m 1.8165034,90.563806 -0.036174,0.630452 q 0.2273763,-0.377238 0.5529379,-0.563273 0.3307291,-0.191203 0.7596435,-0.191203 0.5374349,0 0.8784993,0.253215 0.3410645,0.253214 0.4392497,0.640788 0.098185,0.382405 0.098185,1.281575 v 4.805908 H 2.4211177 v -4.749064 q 0,-0.707967 -0.046509,-0.862996 -0.046509,-0.155029 -0.2583822,-0.155029 -0.2222086,0 -0.2790527,0.180867 -0.056844,0.1757 -0.056844,0.950846 v 4.635376 h -2.08772775 v -6.857462 z"
         style="font-style:normal;font-variant:normal;font-weight:normal;font-stretch:normal;font-family:Impact;-inkscape-font-specification:Impact;fill:#2151a8;fill-opacity:1;stroke-width:0.26458332"
         id="path5252" />
      <path
         d="m 7.433731,89.649133 v 1.080037 h 0.5632731 v 1.085205 H 7.433731 v 3.669027 q 0,0.676961 0.067179,0.754476 0.072347,0.07752 0.5839436,0.07752 v 1.105875 H 7.2425282 q -0.7131347,0 -1.0180257,-0.05684 Q 5.9196116,97.302412 5.6870676,97.090539 5.4545237,96.873498 5.3976796,96.599613 5.3408356,96.32056 5.3408356,95.297367 V 91.814375 H 4.8912506 V 90.72917 h 0.449585 v -1.080037 z"
         style="font-style:normal;font-variant:normal;font-weight:normal;font-stretch:normal;font-family:Impact;-inkscape-font-specification:Impact;fill:#2151a8;fill-opacity:1;stroke-width:0.26458332"
         id="path5254" />
      <path
         d="m 14.58058,92.754886 h -1.850017 v -0.37207 q 0,-0.475423 -0.05684,-0.599446 -0.05168,-0.129191 -0.268717,-0.129191 -0.1757,0 -0.26355,0.118855 -0.08785,0.113688 -0.08785,0.346232 0,0.315227 0.04134,0.465088 0.04651,0.144694 0.26355,0.320394 0.222209,0.1757 0.904338,0.511597 0.909505,0.444417 1.193725,0.837158 0.284221,0.392741 0.284221,1.142049 0,0.837158 -0.217041,1.266073 -0.217041,0.423746 -0.728638,0.65629 -0.506429,0.227377 -1.224732,0.227377 -0.795817,0 -1.364257,-0.248047 -0.563273,-0.248047 -0.775147,-0.671794 -0.211873,-0.423747 -0.211873,-1.281575 v -0.330729 h 1.850016 v 0.434082 q 0,0.552937 0.06718,0.718302 0.07235,0.165364 0.279053,0.165364 0.222209,0 0.310059,-0.10852 0.08785,-0.113688 0.08785,-0.470256 0,-0.490926 -0.113688,-0.614949 -0.118856,-0.124023 -1.214397,-0.733805 -0.91984,-0.516765 -1.121378,-0.935344 -0.201538,-0.423747 -0.201538,-1.002523 0,-0.821655 0.217041,-1.209228 0.217041,-0.392741 0.733805,-0.604614 0.521932,-0.211874 1.209229,-0.211874 0.682128,0 1.157552,0.1757 0.48059,0.170532 0.733805,0.454753 0.258382,0.28422 0.310059,0.527099 0.05684,0.24288 0.05684,0.759644 z"
         style="font-style:normal;font-variant:normal;font-weight:normal;font-stretch:normal;font-family:Impact;-inkscape-font-specification:Impact;fill:#2151a8;fill-opacity:1;stroke-width:0.26458332"
         id="path5256" />
      <path
         d="m 20.022109,92.971927 v 1.679484 q 0,0.925009 -0.09302,1.359091 -0.09302,0.428914 -0.397909,0.806152 -0.304891,0.37207 -0.785482,0.552938 -0.475423,0.1757 -1.09554,0.1757 -0.692464,0 -1.173055,-0.149862 -0.480591,-0.155029 -0.749308,-0.45992 -0.26355,-0.310059 -0.377238,-0.744141 -0.113688,-0.43925 -0.113688,-1.312581 v -1.756999 q 0,-0.956014 0.206705,-1.493449 0.206706,-0.537435 0.744141,-0.862996 0.537435,-0.325562 1.374593,-0.325562 0.7028,0 1.204061,0.211874 0.506429,0.206705 0.780314,0.542602 0.273885,0.335897 0.37207,0.692464 0.103353,0.356568 0.103353,1.085205 z m -2.087728,-0.516764 q 0,-0.527099 -0.05684,-0.661458 -0.05684,-0.139526 -0.242879,-0.139526 -0.186035,0 -0.248047,0.139526 -0.06201,0.134359 -0.06201,0.661458 v 3.095418 q 0,0.485759 0.06201,0.63562 0.06201,0.144694 0.242879,0.144694 0.186036,0 0.24288,-0.134358 0.06201,-0.134359 0.06201,-0.578776 z"
         style="font-style:normal;font-variant:normal;font-weight:normal;font-stretch:normal;font-family:Impact;-inkscape-font-specification:Impact;fill:#2151a8;fill-opacity:1;stroke-width:0.26458332"
         id="path5258" />
      <path
         d="m 25.494645,90.563806 v 6.857462 h -2.123902 l 0.03617,-0.568441 q -0.217041,0.346233 -0.537435,0.521932 -0.315226,0.170533 -0.728638,0.170533 -0.470255,0 -0.780314,-0.165365 -0.310058,-0.165365 -0.45992,-0.43925 -0.144694,-0.273885 -0.180868,-0.56844 -0.03617,-0.299724 -0.03617,-1.183391 v -4.62504 h 2.087728 v 4.666382 q 0,0.800984 0.04651,0.950846 0.05168,0.149861 0.268717,0.149861 0.232544,0 0.273885,-0.155029 0.04651,-0.155029 0.04651,-0.997355 v -4.614705 z"
         style="font-style:normal;font-variant:normal;font-weight:normal;font-stretch:normal;font-family:Impact;-inkscape-font-specification:Impact;fill:#2151a8;fill-opacity:1;stroke-width:0.26458332"
         id="path5260" />
      <path
         d="m 30.517591,92.754886 h -1.850016 v -0.37207 q 0,-0.475423 -0.05684,-0.599446 -0.05168,-0.129191 -0.268717,-0.129191 -0.1757,0 -0.26355,0.118855 -0.08785,0.113688 -0.08785,0.346232 0,0.315227 0.04134,0.465088 0.04651,0.144694 0.26355,0.320394 0.222208,0.1757 0.904337,0.511597 0.909506,0.444417 1.193726,0.837158 0.28422,0.392741 0.28422,1.142049 0,0.837158 -0.217041,1.266073 -0.217041,0.423746 -0.728637,0.65629 -0.506429,0.227377 -1.224732,0.227377 -0.795817,0 -1.364258,-0.248047 -0.563273,-0.248047 -0.775146,-0.671794 -0.211873,-0.423747 -0.211873,-1.281575 v -0.330729 h 1.850016 v 0.434082 q 0,0.552937 0.06718,0.718302 0.07235,0.165364 0.279053,0.165364 0.222209,0 0.310058,-0.10852 0.08785,-0.113688 0.08785,-0.470256 0,-0.490926 -0.113688,-0.614949 -0.118856,-0.124023 -1.214396,-0.733805 -0.91984,-0.516765 -1.121378,-0.935344 -0.201538,-0.423747 -0.201538,-1.002523 0,-0.821655 0.217041,-1.209228 0.217041,-0.392741 0.733805,-0.604614 0.521932,-0.211874 1.209228,-0.211874 0.682129,0 1.157552,0.1757 0.480591,0.170532 0.733806,0.454753 0.258382,0.28422 0.310058,0.527099 0.05684,0.24288 0.05684,0.759644 z"
         style="font-style:normal;font-variant:normal;font-weight:normal;font-stretch:normal;font-family:Impact;-inkscape-font-specification:Impact;fill:#2151a8;fill-opacity:1;stroke-width:0.26458332"
         id="path5262" />
      <path
         d="m 35.245986,89.054854 v 8.366414 h -2.149739 v -8.366414 z"
         style="font-style:normal;font-variant:normal;font-weight:normal;font-stretch:normal;font-family:Impact;-inkscape-font-specification:Impact;fill:#2151a8;fill-opacity:1;stroke-width:0.26458332"
         id="path5264" />
      <path
         d="M 36.077976,91.747196 35.80409,90.33643 v -1.281576 h 1.581299 v 1.281576 l -0.237711,1.410766 z"
         style="font-style:normal;font-variant:normal;font-weight:normal;font-stretch:normal;font-family:Impact;-inkscape-font-specification:Impact;fill:#2151a8;fill-opacity:1;stroke-width:0.26458332"
         id="path5266" />
      <path
         d="m 39.819352,93.219974 h -1.958537 v -0.45992 q 0,-0.795817 0.180868,-1.224731 0.186035,-0.434082 0.738973,-0.764811 0.552937,-0.33073 1.436604,-0.33073 1.059367,0 1.596802,0.377238 0.537435,0.372071 0.645955,0.919841 0.108521,0.542602 0.108521,2.242757 v 3.44165 h -2.030884 v -0.609782 q -0.191203,0.366903 -0.496094,0.552938 -0.299723,0.180868 -0.718302,0.180868 -0.54777,0 -1.00769,-0.304891 -0.454753,-0.310059 -0.454753,-1.348755 v -0.563273 q 0,-0.769979 0.242879,-1.049032 0.242879,-0.279053 1.204061,-0.651123 1.028361,-0.403076 1.100708,-0.542602 0.07235,-0.139527 0.07235,-0.568441 0,-0.537435 -0.08268,-0.697632 -0.07751,-0.165364 -0.26355,-0.165364 -0.211873,0 -0.26355,0.139526 -0.05168,0.134359 -0.05168,0.707967 z m 0.661458,0.940511 q -0.501261,0.366903 -0.583944,0.61495 -0.07751,0.248047 -0.07751,0.713135 0,0.532267 0.06718,0.687296 0.07235,0.155029 0.279053,0.155029 0.19637,0 0.253214,-0.118855 0.06201,-0.124024 0.06201,-0.640788 z"
         style="font-style:normal;font-variant:normal;font-weight:normal;font-stretch:normal;font-family:Impact;-inkscape-font-specification:Impact;fill:#2151a8;fill-opacity:1;stroke-width:0.26458332"
         id="path5268" />
      <path
         d="m 45.948177,89.054854 v 1.059367 q -0.645956,0 -0.764812,0.06201 -0.113688,0.05684 -0.113688,0.335896 v 0.217041 h 0.8785 v 1.085205 h -0.496094 v 5.606893 H 43.364355 V 91.814375 H 42.935441 V 90.72917 h 0.428914 q 0,-0.676961 0.04651,-0.904337 0.04651,-0.227376 0.227376,-0.403076 0.186035,-0.180868 0.516764,-0.273885 0.33073,-0.09302 1.028361,-0.09302 z"
         style="font-style:normal;font-variant:normal;font-weight:normal;font-stretch:normal;font-family:Impact;-inkscape-font-specification:Impact;fill:#2151a8;fill-opacity:1;stroke-width:0.26458332"
         id="path5270" />
      <path
         d="m 49.007419,89.054854 v 1.059367 q -0.645956,0 -0.764811,0.06201 -0.113688,0.05684 -0.113688,0.335896 v 0.217041 h 0.878499 v 1.085205 h -0.496094 v 5.606893 H 46.423597 V 91.814375 H 45.994683 V 90.72917 h 0.428914 q 0,-0.676961 0.04651,-0.904337 0.04651,-0.227376 0.227376,-0.403076 0.186036,-0.180868 0.516765,-0.273885 0.330729,-0.09302 1.028361,-0.09302 z"
         style="font-style:normal;font-variant:normal;font-weight:normal;font-stretch:normal;font-family:Impact;-inkscape-font-specification:Impact;fill:#2151a8;fill-opacity:1;stroke-width:0.26458332"
         id="path5272" />
      <path
         d="m 51.555064,89.054854 v 1.090373 h -2.149739 v -1.090373 z m 0,1.508952 v 6.857462 h -2.149739 v -6.857462 z"
         style="font-style:normal;font-variant:normal;font-weight:normal;font-stretch:normal;font-family:Impact;-inkscape-font-specification:Impact;fill:#2151a8;fill-opacity:1;stroke-width:0.26458332"
         id="path5274" />
      <path
         d="m 56.433322,90.563806 -0.83199,3.276286 1.00769,3.581176 h -2.030884 q -0.299723,-1.353922 -0.454752,-2.330607 -0.206706,1.219564 -0.449585,2.330607 h -1.746664 l 0.89917,-3.581176 -0.89917,-3.276286 h 1.746664 q 0.418579,2.098063 0.449585,2.382283 0.299723,-1.751831 0.454752,-2.382283 z"
         style="font-style:normal;font-variant:normal;font-weight:normal;font-stretch:normal;font-family:Impact;-inkscape-font-specification:Impact;fill:#2151a8;fill-opacity:1;stroke-width:0.26458332"
         id="path5276" />
      <path
         d="m 61.616468,94.113977 h -2.702677 v 1.483113 q 0,0.465088 0.06718,0.599447 0.06718,0.134358 0.258382,0.134358 0.237712,0 0.315227,-0.175699 0.08268,-0.180868 0.08268,-0.692465 v -0.904337 h 1.979207 v 0.506429 q 0,0.63562 -0.08268,0.976684 -0.07751,0.341065 -0.37207,0.728638 -0.294556,0.387573 -0.749309,0.583944 -0.449585,0.191203 -1.131713,0.191203 -0.661459,0 -1.167888,-0.191203 -0.506429,-0.191203 -0.790649,-0.521932 -0.279053,-0.335897 -0.387573,-0.733805 -0.108521,-0.403077 -0.108521,-1.167888 v -1.999878 q 0,-0.89917 0.242879,-1.415934 0.24288,-0.521932 0.795817,-0.795817 0.552938,-0.279053 1.271241,-0.279053 0.878499,0 1.44694,0.335897 0.573608,0.330729 0.800984,0.883667 0.232544,0.54777 0.232544,1.545125 z m -2.092895,-1.116211 v -0.501262 q 0,-0.532267 -0.05684,-0.687296 -0.05684,-0.155029 -0.232544,-0.155029 -0.217041,0 -0.268718,0.134358 -0.05168,0.129191 -0.05168,0.707967 v 0.501262 z"
         style="font-style:normal;font-variant:normal;font-weight:normal;font-stretch:normal;font-family:Impact;-inkscape-font-specification:Impact;fill:#2151a8;fill-opacity:1;stroke-width:0.26458332"
         id="path5278" />
      <path
         d="m 68.913178,89.054854 v 8.366414 H 66.82545 v -0.496094 q -0.299723,0.310059 -0.630452,0.465088 -0.330729,0.15503 -0.692464,0.15503 -0.485759,0 -0.842326,-0.253215 -0.356568,-0.258382 -0.459921,-0.594279 -0.09819,-0.335897 -0.09819,-1.09554 v -3.209107 q 0,-0.790649 0.09819,-1.121378 0.103353,-0.330729 0.465088,-0.578776 0.361735,-0.253215 0.862997,-0.253215 0.387573,0 0.707967,0.139527 0.325561,0.139526 0.589111,0.418579 v -1.943034 z m -2.087728,3.234945 q 0,-0.377238 -0.06718,-0.506429 -0.06201,-0.129191 -0.253215,-0.129191 -0.186035,0 -0.253214,0.118855 -0.06201,0.113688 -0.06201,0.516765 v 3.358968 q 0,0.418579 0.06201,0.552937 0.06201,0.129191 0.237711,0.129191 0.201538,0 0.268718,-0.144694 0.06718,-0.149861 0.06718,-0.72347 z"
         style="font-style:normal;font-variant:normal;font-weight:normal;font-stretch:normal;font-family:Impact;-inkscape-font-specification:Impact;fill:#2151a8;fill-opacity:1;stroke-width:0.26458332"
         id="path5280" />
      <path
         d="m 74.390882,94.113977 h -2.702677 v 1.483113 q 0,0.465088 0.06718,0.599447 0.06718,0.134358 0.258383,0.134358 0.237711,0 0.315226,-0.175699 0.08268,-0.180868 0.08268,-0.692465 v -0.904337 h 1.979207 v 0.506429 q 0,0.63562 -0.08268,0.976684 -0.07752,0.341065 -0.37207,0.728638 -0.294556,0.387573 -0.749308,0.583944 -0.449585,0.191203 -1.131714,0.191203 -0.661459,0 -1.167888,-0.191203 -0.506429,-0.191203 -0.790649,-0.521932 -0.279053,-0.335897 -0.387573,-0.733805 -0.108521,-0.403077 -0.108521,-1.167888 v -1.999878 q 0,-0.89917 0.242879,-1.415934 0.24288,-0.521932 0.795817,-0.795817 0.552938,-0.279053 1.271241,-0.279053 0.878499,0 1.44694,0.335897 0.573608,0.330729 0.800984,0.883667 0.232544,0.54777 0.232544,1.545125 z m -2.092895,-1.116211 v -0.501262 q 0,-0.532267 -0.05684,-0.687296 -0.05684,-0.155029 -0.232544,-0.155029 -0.217041,0 -0.268718,0.134358 -0.05168,0.129191 -0.05168,0.707967 v 0.501262 z"
         style="font-style:normal;font-variant:normal;font-weight:normal;font-stretch:normal;font-family:Impact;-inkscape-font-specification:Impact;fill:#2151a8;fill-opacity:1;stroke-width:0.26458332"
         id="path5282" />
      <path
         d="m -21.846135,102.28402 v 8.36641 h -2.149739 v -8.36641 z"
         style="font-style:normal;font-variant:normal;font-weight:normal;font-stretch:normal;font-size:10.58333302px;line-height:0;font-family:Impact;-inkscape-font-specification:Impact;fill:#2151a8;fill-opacity:1;stroke-width:0.26458332"
         id="path5284" />
      <path
         d="m -19.236475,106.44914 h -1.958537 v -0.45992 q 0,-0.79582 0.180868,-1.22473 0.186035,-0.43408 0.738973,-0.76481 0.552937,-0.33073 1.436604,-0.33073 1.059367,0 1.596802,0.37724 0.537435,0.37207 0.645955,0.91984 0.108521,0.5426 0.108521,2.24275 v 3.44165 h -2.030884 v -0.60978 q -0.191203,0.36691 -0.496093,0.55294 -0.299724,0.18087 -0.718303,0.18087 -0.54777,0 -1.00769,-0.30489 -0.454753,-0.31006 -0.454753,-1.34876 v -0.56327 q 0,-0.76998 0.242879,-1.04903 0.24288,-0.27906 1.204061,-0.65113 1.028361,-0.40307 1.100708,-0.5426 0.07235,-0.13952 0.07235,-0.56844 0,-0.53743 -0.08268,-0.69763 -0.07751,-0.16537 -0.26355,-0.16537 -0.211873,0 -0.26355,0.13953 -0.05168,0.13436 -0.05168,0.70797 z m 0.661458,0.94051 q -0.501261,0.3669 -0.583943,0.61495 -0.07751,0.24805 -0.07751,0.71314 0,0.53226 0.06718,0.68729 0.07235,0.15503 0.279053,0.15503 0.19637,0 0.253214,-0.11885 0.06201,-0.12403 0.06201,-0.64079 z"
         style="font-style:normal;font-variant:normal;font-weight:normal;font-stretch:normal;font-size:10.58333302px;line-height:0;font-family:Impact;-inkscape-font-specification:Impact;fill:#2151a8;fill-opacity:1;stroke-width:0.26458332"
         id="path5286" />
      <path
         d="m -9.2370858,104.81617 h -2.0205482 v -0.62012 q 0,-0.43408 -0.07752,-0.55294 -0.07752,-0.11886 -0.258382,-0.11886 -0.19637,0 -0.299723,0.1602 -0.09819,0.1602 -0.09819,0.48576 0,0.41858 0.113689,0.63045 0.10852,0.21188 0.614949,0.5116 1.4521078,0.863 1.8293458,1.41593 0.3772379,0.55294 0.3772379,1.78284 0,0.894 -0.2118734,1.31775 -0.2067057,0.42375 -0.8061523,0.71313 -0.599447,0.28422 -1.395264,0.28422 -0.873331,0 -1.493448,-0.33072 -0.61495,-0.33073 -0.806153,-0.84233 -0.191203,-0.5116 -0.191203,-1.45211 v -0.54777 h 2.020549 v 1.01803 q 0,0.47025 0.08268,0.60461 0.08785,0.13436 0.304891,0.13436 0.217041,0 0.320394,-0.17053 0.10852,-0.17053 0.10852,-0.50643 0,-0.73897 -0.201538,-0.96635 -0.206705,-0.22738 -1.018025,-0.75964 -0.81132,-0.53744 -1.07487,-0.78032 -0.26355,-0.24288 -0.43925,-0.67179 -0.170532,-0.42892 -0.170532,-1.09554 0,-0.96118 0.242879,-1.4056 0.248047,-0.44442 0.795817,-0.69247 0.54777,-0.25321 1.322917,-0.25321 0.847493,0 1.441772,0.27389 0.599447,0.27388 0.7906498,0.69246 0.1963704,0.41341 0.1963704,1.41077 z"
         style="font-style:normal;font-variant:normal;font-weight:normal;font-stretch:normal;font-size:10.58333302px;line-height:0;font-family:Impact;-inkscape-font-specification:Impact;fill:#2151a8;fill-opacity:1;stroke-width:0.26458332"
         id="path5288" />
      <path
         d="m -3.7077072,106.20109 v 1.67949 q 0,0.92501 -0.093018,1.35909 -0.093018,0.42891 -0.3979085,0.80615 -0.304891,0.37207 -0.7854818,0.55294 -0.4754231,0.1757 -1.0955403,0.1757 -0.6924642,0 -1.173055,-0.14986 -0.4805908,-0.15503 -0.7493082,-0.45992 -0.2635498,-0.31006 -0.377238,-0.74414 -0.1136881,-0.43925 -0.1136881,-1.31259 v -1.75699 q 0,-0.95602 0.2067057,-1.49345 0.2067057,-0.53744 0.7441406,-0.863 0.5374349,-0.32556 1.3745931,-0.32556 0.7027994,0 1.2040608,0.21187 0.506429,0.20671 0.7803141,0.5426 0.2738851,0.3359 0.3720703,0.69247 0.1033529,0.35657 0.1033529,1.0852 z m -2.0877278,-0.51676 q 0,-0.5271 -0.056844,-0.66146 -0.056844,-0.13953 -0.2428792,-0.13953 -0.1860352,0 -0.2480469,0.13953 -0.062012,0.13436 -0.062012,0.66146 v 3.09542 q 0,0.48576 0.062012,0.63562 0.062012,0.14469 0.2428792,0.14469 0.1860352,0 0.2428792,-0.13436 0.062012,-0.13436 0.062012,-0.57877 z"
         style="font-style:normal;font-variant:normal;font-weight:normal;font-stretch:normal;font-size:10.58333302px;line-height:0;font-family:Impact;-inkscape-font-specification:Impact;fill:#2151a8;fill-opacity:1;stroke-width:0.26458332"
         id="path5290" />
      <path
         d="m 1.5994617,106.38196 h -1.96887199 v -0.79065 q 0,-0.41341 -0.0671794,-0.5581 -0.0671794,-0.14987 -0.24804687,-0.14987 -0.1808675,0 -0.24287922,0.1292 -0.0620117,0.12919 -0.0620117,0.57877 v 3.23495 q 0,0.3669 0.0930176,0.55293 0.0930176,0.18087 0.27388508,0.18087 0.21187337,0 0.28422037,-0.1912 0.0775146,-0.1912 0.0775146,-0.72347 V 107.8289 H 1.5994617 q -0.00517,0.82166 -0.062012,1.23507 -0.051676,0.40824 -0.3462321,0.84232 -0.28938799,0.42892 -0.75964351,0.65113 -0.47025552,0.21704 -1.16271969,0.21704 -0.883667,0 -1.4004313,-0.29973 -0.5167643,-0.30489 -0.7338053,-0.84749 -0.2118734,-0.54777 -0.2118734,-1.55029 v -1.9482 q 0,-0.87333 0.1756999,-1.31775 0.1756999,-0.44442 0.7493083,-0.79065 0.5736083,-0.3514 1.39526358,-0.3514 0.81648761,0 1.39526363,0.34623 0.57877599,0.34623 0.76997879,0.87333 0.1912028,0.5271 0.1912028,1.49345 z"
         style="font-style:normal;font-variant:normal;font-weight:normal;font-stretch:normal;font-size:10.58333302px;line-height:0;font-family:Impact;-inkscape-font-specification:Impact;fill:#2151a8;fill-opacity:1;stroke-width:0.26458332"
         id="path5292" />
      <path
         d="m 4.3641503,102.28402 v 1.09037 H 2.2144108 v -1.09037 z m 0,1.50895 v 6.85746 H 2.2144108 v -6.85746 z"
         style="font-style:normal;font-variant:normal;font-weight:normal;font-stretch:normal;font-size:10.58333302px;line-height:0;font-family:Impact;-inkscape-font-specification:Impact;fill:#2151a8;fill-opacity:1;stroke-width:0.26458332"
         id="path5294" />
      <path
         d="M 9.836685,107.34314 H 7.1340077 v 1.48312 q 0,0.46508 0.067179,0.59944 0.067179,0.13436 0.2583821,0.13436 0.2377116,0 0.3152262,-0.1757 0.082682,-0.18087 0.082682,-0.69246 v -0.90434 H 9.836685 v 0.50643 q 0,0.63562 -0.082682,0.97668 -0.077515,0.34107 -0.3720703,0.72864 -0.2945556,0.38757 -0.7493082,0.58395 -0.449585,0.1912 -1.1317138,0.1912 -0.6614584,0 -1.1678874,-0.1912 -0.506429,-0.19121 -0.7906494,-0.52194 -0.2790527,-0.33589 -0.3875732,-0.7338 -0.1085205,-0.40308 -0.1085205,-1.16789 v -1.99988 q 0,-0.89917 0.2428792,-1.41593 0.2428792,-0.52193 0.7958171,-0.79582 0.5529378,-0.27905 1.2712402,-0.27905 0.8784993,0 1.44694,0.3359 0.5736084,0.33072 0.8009847,0.88366 0.2325439,0.54777 0.2325439,1.54513 z m -2.0928954,-1.11621 v -0.50126 q 0,-0.53227 -0.056844,-0.6873 -0.056844,-0.15503 -0.2325439,-0.15503 -0.217041,0 -0.2687175,0.13436 -0.051676,0.12919 -0.051676,0.70797 v 0.50126 z m 1.462443,-4.29431 -1.7001546,1.40043 H 6.4570465 l 0.9095051,-1.40043 z"
         style="font-style:normal;font-variant:normal;font-weight:normal;font-stretch:normal;font-size:10.58333302px;line-height:0;font-family:Impact;-inkscape-font-specification:Impact;fill:#2151a8;fill-opacity:1;stroke-width:0.26458332"
         id="path5296" />
      <path
         d="m 12.725397,102.8783 v 1.08004 h 0.563273 v 1.0852 h -0.563273 v 3.66903 q 0,0.67696 0.06718,0.75447 0.07235,0.0775 0.583944,0.0775 v 1.10587 h -0.842326 q -0.713135,0 -1.018025,-0.0568 -0.304891,-0.062 -0.537435,-0.27388 -0.232544,-0.21705 -0.289388,-0.49093 -0.05684,-0.27905 -0.05684,-1.30225 v -3.48299 h -0.449585 v -1.0852 h 0.449585 v -1.08004 z"
         style="font-style:normal;font-variant:normal;font-weight:normal;font-stretch:normal;font-size:10.58333302px;line-height:0;font-family:Impact;-inkscape-font-specification:Impact;fill:#2151a8;fill-opacity:1;stroke-width:0.26458332"
         id="path5298" />
      <path
         d="m 18.476984,107.34314 h -2.702677 v 1.48312 q 0,0.46508 0.06718,0.59944 0.06718,0.13436 0.258382,0.13436 0.237712,0 0.315226,-0.1757 0.08268,-0.18087 0.08268,-0.69246 v -0.90434 h 1.979207 v 0.50643 q 0,0.63562 -0.08268,0.97668 -0.07751,0.34107 -0.372071,0.72864 -0.294555,0.38757 -0.749308,0.58395 -0.449585,0.1912 -1.131714,0.1912 -0.661458,0 -1.167887,-0.1912 -0.506429,-0.19121 -0.79065,-0.52194 -0.279052,-0.33589 -0.387573,-0.7338 -0.10852,-0.40308 -0.10852,-1.16789 v -1.99988 q 0,-0.89917 0.242879,-1.41593 0.242879,-0.52193 0.795817,-0.79582 0.552938,-0.27905 1.27124,-0.27905 0.8785,0 1.44694,0.3359 0.573609,0.33072 0.800985,0.88366 0.232544,0.54777 0.232544,1.54513 z m -2.092896,-1.11621 v -0.50126 q 0,-0.53227 -0.05684,-0.6873 -0.05684,-0.15503 -0.232544,-0.15503 -0.217041,0 -0.268717,0.13436 -0.05168,0.12919 -0.05168,0.70797 v 0.50126 z m 1.462443,-4.29431 -1.700154,1.40043 h -1.049032 l 0.909505,-1.40043 z"
         style="font-style:normal;font-variant:normal;font-weight:normal;font-stretch:normal;font-size:10.58333302px;line-height:0;font-family:Impact;-inkscape-font-specification:Impact;fill:#2151a8;fill-opacity:1;stroke-width:0.26458332"
         id="path5300" />
      <path
         d="m 21.086645,102.28402 h 1.539958 q 1.539957,0 2.08256,0.11886 0.54777,0.11885 0.888835,0.60978 0.346232,0.48576 0.346232,1.55546 0,0.97668 -0.24288,1.31258 -0.242879,0.3359 -0.956014,0.40308 0.645956,0.16019 0.868164,0.42891 0.222209,0.26872 0.273886,0.49609 0.05684,0.22221 0.05684,1.23507 v 2.20658 h -2.020549 v -2.78019 q 0,-0.67179 -0.10852,-0.83199 -0.103353,-0.16019 -0.552938,-0.16019 v 3.77237 h -2.175578 z m 2.175578,1.43144 v 1.86035 q 0.366903,0 0.511597,-0.0982 0.149861,-0.10335 0.149861,-0.65629 v -0.45992 q 0,-0.39791 -0.144694,-0.52193 -0.139526,-0.12402 -0.516764,-0.12402 z"
         style="font-style:normal;font-variant:normal;font-weight:normal;font-stretch:normal;font-size:10.58333302px;line-height:0;font-family:Impact;-inkscape-font-specification:Impact;fill:#2151a8;fill-opacity:1;stroke-width:0.26458332"
         id="path5302" />
      <path
         d="m 31.452937,106.20109 v 1.67949 q 0,0.92501 -0.09302,1.35909 -0.09302,0.42891 -0.397909,0.80615 -0.304891,0.37207 -0.785482,0.55294 -0.475423,0.1757 -1.09554,0.1757 -0.692464,0 -1.173055,-0.14986 -0.480591,-0.15503 -0.749308,-0.45992 -0.26355,-0.31006 -0.377238,-0.74414 -0.113688,-0.43925 -0.113688,-1.31259 v -1.75699 q 0,-0.95602 0.206706,-1.49345 0.206705,-0.53744 0.74414,-0.863 0.537435,-0.32556 1.374593,-0.32556 0.7028,0 1.204061,0.21187 0.506429,0.20671 0.780314,0.5426 0.273885,0.3359 0.37207,0.69247 0.103353,0.35657 0.103353,1.0852 z m -2.087728,-0.51676 q 0,-0.5271 -0.05684,-0.66146 -0.05684,-0.13953 -0.242879,-0.13953 -0.186035,0 -0.248047,0.13953 -0.06201,0.13436 -0.06201,0.66146 v 3.09542 q 0,0.48576 0.06201,0.63562 0.06201,0.14469 0.24288,0.14469 0.186035,0 0.242879,-0.13436 0.06201,-0.13436 0.06201,-0.57877 z"
         style="font-style:normal;font-variant:normal;font-weight:normal;font-stretch:normal;font-size:10.58333302px;line-height:0;font-family:Impact;-inkscape-font-specification:Impact;fill:#2151a8;fill-opacity:1;stroke-width:0.26458332"
         id="path5304" />
      <path
         d="m 36.517225,103.79297 -0.599446,4.96094 q -0.139527,1.17822 -0.237712,1.60714 -0.09302,0.42891 -0.315226,0.70796 -0.222209,0.27906 -0.620117,0.40825 -0.392741,0.13436 -1.260905,0.13436 h -1.266073 v -1.09554 q 0.485759,0 0.625285,-0.0465 0.139526,-0.0517 0.139526,-0.22221 0,-0.0827 -0.129191,-0.7183 l -1.142049,-5.73609 h 1.896525 l 0.682129,4.62504 0.330729,-4.62504 z"
         style="font-style:normal;font-variant:normal;font-weight:normal;font-stretch:normal;font-size:10.58333302px;line-height:0;font-family:Impact;-inkscape-font-specification:Impact;fill:#2151a8;fill-opacity:1;stroke-width:0.26458332"
         id="path5306" />
      <path
         d="m 38.765153,106.44914 h -1.958537 v -0.45992 q 0,-0.79582 0.180867,-1.22473 0.186035,-0.43408 0.738973,-0.76481 0.552938,-0.33073 1.436605,-0.33073 1.059367,0 1.596802,0.37724 0.537435,0.37207 0.645955,0.91984 0.108521,0.5426 0.108521,2.24275 v 3.44165 h -2.030884 v -0.60978 q -0.191203,0.36691 -0.496094,0.55294 -0.299723,0.18087 -0.718302,0.18087 -0.54777,0 -1.007691,-0.30489 -0.454752,-0.31006 -0.454752,-1.34876 v -0.56327 q 0,-0.76998 0.242879,-1.04903 0.242879,-0.27906 1.204061,-0.65113 1.028361,-0.40307 1.100708,-0.5426 0.07235,-0.13952 0.07235,-0.56844 0,-0.53743 -0.08268,-0.69763 -0.07752,-0.16537 -0.26355,-0.16537 -0.211874,0 -0.26355,0.13953 -0.05168,0.13436 -0.05168,0.70797 z m 0.661458,0.94051 q -0.501262,0.3669 -0.583944,0.61495 -0.07751,0.24805 -0.07751,0.71314 0,0.53226 0.06718,0.68729 0.07235,0.15503 0.279053,0.15503 0.19637,0 0.253214,-0.11885 0.06201,-0.12403 0.06201,-0.64079 z"
         style="font-style:normal;font-variant:normal;font-weight:normal;font-stretch:normal;font-size:10.58333302px;line-height:0;font-family:Impact;-inkscape-font-specification:Impact;fill:#2151a8;fill-opacity:1;stroke-width:0.26458332"
         id="path5308" />
      <path
         d="m 44.382381,102.28402 v 8.36641 h -2.14974 v -8.36641 z"
         style="font-style:normal;font-variant:normal;font-weight:normal;font-stretch:normal;font-size:10.58333302px;line-height:0;font-family:Impact;-inkscape-font-specification:Impact;fill:#2151a8;fill-opacity:1;stroke-width:0.26458332"
         id="path5310" />
      <path
         d="m 49.85491,107.34314 h -2.702678 v 1.48312 q 0,0.46508 0.06718,0.59944 0.06718,0.13436 0.258382,0.13436 0.237712,0 0.315226,-0.1757 0.08268,-0.18087 0.08268,-0.69246 v -0.90434 h 1.979208 v 0.50643 q 0,0.63562 -0.08268,0.97668 -0.07751,0.34107 -0.37207,0.72864 -0.294556,0.38757 -0.749308,0.58395 -0.449585,0.1912 -1.131714,0.1912 -0.661458,0 -1.167887,-0.1912 -0.506429,-0.19121 -0.79065,-0.52194 -0.279052,-0.33589 -0.387573,-0.7338 -0.10852,-0.40308 -0.10852,-1.16789 v -1.99988 q 0,-0.89917 0.242879,-1.41593 0.242879,-0.52193 0.795817,-0.79582 0.552938,-0.27905 1.27124,-0.27905 0.878499,0 1.44694,0.3359 0.573609,0.33072 0.800985,0.88366 0.232544,0.54777 0.232544,1.54513 z m -2.092896,-1.11621 v -0.50126 q 0,-0.53227 -0.05684,-0.6873 -0.05684,-0.15503 -0.232544,-0.15503 -0.217041,0 -0.268717,0.13436 -0.05168,0.12919 -0.05168,0.70797 v 0.50126 z"
         style="font-style:normal;font-variant:normal;font-weight:normal;font-stretch:normal;font-size:10.58333302px;line-height:0;font-family:Impact;-inkscape-font-specification:Impact;fill:#2151a8;fill-opacity:1;stroke-width:0.26458332"
         id="path5312" />
      <path
         d="m 57.074112,104.81617 h -2.020548 v -0.62012 q 0,-0.43408 -0.07751,-0.55294 -0.07751,-0.11886 -0.258382,-0.11886 -0.19637,0 -0.299723,0.1602 -0.09819,0.1602 -0.09819,0.48576 0,0.41858 0.113688,0.63045 0.10852,0.21188 0.614949,0.5116 1.452108,0.863 1.829346,1.41593 0.377238,0.55294 0.377238,1.78284 0,0.894 -0.211873,1.31775 -0.206706,0.42375 -0.806153,0.71313 -0.599446,0.28422 -1.395263,0.28422 -0.873332,0 -1.493449,-0.33072 -0.61495,-0.33073 -0.806153,-0.84233 -0.191202,-0.5116 -0.191202,-1.45211 v -0.54777 h 2.020548 v 1.01803 q 0,0.47025 0.08268,0.60461 0.08785,0.13436 0.304891,0.13436 0.217041,0 0.320394,-0.17053 0.108521,-0.17053 0.108521,-0.50643 0,-0.73897 -0.201538,-0.96635 -0.206706,-0.22738 -1.018026,-0.75964 -0.81132,-0.53744 -1.07487,-0.78032 -0.26355,-0.24288 -0.439249,-0.67179 -0.170533,-0.42892 -0.170533,-1.09554 0,-0.96118 0.24288,-1.4056 0.248046,-0.44442 0.795817,-0.69247 0.54777,-0.25321 1.322916,-0.25321 0.847494,0 1.441773,0.27389 0.599446,0.27388 0.790649,0.69246 0.19637,0.41341 0.19637,1.41077 z"
         style="font-style:normal;font-variant:normal;font-weight:normal;font-stretch:normal;font-size:10.58333302px;line-height:0;font-family:Impact;-inkscape-font-specification:Impact;fill:#2151a8;fill-opacity:1;stroke-width:0.26458332"
         id="path5314" />
      <path
         d="m 60.081678,102.8783 v 1.08004 h 0.563273 v 1.0852 h -0.563273 v 3.66903 q 0,0.67696 0.06718,0.75447 0.07235,0.0775 0.583943,0.0775 v 1.10587 h -0.842325 q -0.713135,0 -1.018026,-0.0568 -0.304891,-0.062 -0.537435,-0.27388 -0.232544,-0.21705 -0.289388,-0.49093 -0.05684,-0.27905 -0.05684,-1.30225 v -3.48299 h -0.449585 v -1.0852 h 0.449585 v -1.08004 z"
         style="font-style:normal;font-variant:normal;font-weight:normal;font-stretch:normal;font-size:10.58333302px;line-height:0;font-family:Impact;-inkscape-font-specification:Impact;fill:#2151a8;fill-opacity:1;stroke-width:0.26458332"
         id="path5316" />
      <path
         d="m 68.029514,102.28402 v 8.36641 h -2.175578 v -3.51399 h -0.651123 v 3.51399 h -2.175578 v -8.36641 h 2.175578 v 2.99207 h 0.651123 v -2.99207 z"
         style="font-style:normal;font-variant:normal;font-weight:normal;font-stretch:normal;font-size:10.58333302px;line-height:0;font-family:Impact;-inkscape-font-specification:Impact;fill:#2151a8;fill-opacity:1;stroke-width:0.26458332"
         id="path5318" />
      <path
         d="m 73.615738,103.79297 v 6.85746 h -2.123901 l 0.03617,-0.56844 q -0.217041,0.34624 -0.537435,0.52194 -0.315227,0.17053 -0.728638,0.17053 -0.470255,0 -0.780314,-0.16537 -0.310059,-0.16536 -0.45992,-0.43925 -0.144694,-0.27388 -0.180868,-0.56844 -0.03617,-0.29972 -0.03617,-1.18339 v -4.62504 h 2.087727 v 4.66638 q 0,0.80099 0.04651,0.95085 0.05168,0.14986 0.268718,0.14986 0.232544,0 0.273885,-0.15503 0.04651,-0.15503 0.04651,-0.99735 v -4.61471 z"
         style="font-style:normal;font-variant:normal;font-weight:normal;font-stretch:normal;font-size:10.58333302px;line-height:0;font-family:Impact;-inkscape-font-specification:Impact;fill:#2151a8;fill-opacity:1;stroke-width:0.26458332"
         id="path5320" />
      <path
         d="m 76.463107,102.28402 v 1.97921 q 0.258383,-0.29973 0.573609,-0.44442 0.320394,-0.14986 0.692464,-0.14986 0.428914,0 0.744141,0.13436 0.315226,0.13436 0.48059,0.37724 0.165365,0.24287 0.196371,0.47542 0.03617,0.23254 0.03617,0.99219 v 3.09025 q 0,0.75447 -0.103353,1.12654 -0.09819,0.36691 -0.470255,0.64079 -0.37207,0.26872 -0.883667,0.26872 -0.366903,0 -0.687297,-0.1602 -0.315226,-0.1602 -0.578776,-0.48059 l -0.134358,0.51676 H 74.37538 v -8.36641 z m 0.63562,3.45715 q 0,-0.53226 -0.06718,-0.69246 -0.06718,-0.16537 -0.26355,-0.16537 -0.191202,0 -0.248047,0.1447 -0.05684,0.13953 -0.05684,0.71313 v 2.9559 q 0,0.55293 0.06201,0.70796 0.06718,0.15503 0.258382,0.15503 0.196371,0 0.253215,-0.1602 0.06201,-0.16019 0.06201,-0.76997 z"
         style="font-style:normal;font-variant:normal;font-weight:normal;font-stretch:normal;font-size:10.58333302px;line-height:0;font-family:Impact;-inkscape-font-specification:Impact;fill:#2151a8;fill-opacity:1;stroke-width:0.26458332"
         id="path5322" />
      <path
         d="m 84.602148,107.34314 h -2.702677 v 1.48312 q 0,0.46508 0.06718,0.59944 0.06718,0.13436 0.258382,0.13436 0.237712,0 0.315226,-0.1757 0.08268,-0.18087 0.08268,-0.69246 v -0.90434 h 1.979207 v 0.50643 q 0,0.63562 -0.08268,0.97668 -0.07751,0.34107 -0.372071,0.72864 -0.294555,0.38757 -0.749308,0.58395 -0.449585,0.1912 -1.131714,0.1912 -0.661458,0 -1.167887,-0.1912 -0.506429,-0.19121 -0.790649,-0.52194 -0.279053,-0.33589 -0.387574,-0.7338 -0.10852,-0.40308 -0.10852,-1.16789 v -1.99988 q 0,-0.89917 0.242879,-1.41593 0.242879,-0.52193 0.795817,-0.79582 0.552938,-0.27905 1.27124,-0.27905 0.8785,0 1.44694,0.3359 0.573609,0.33072 0.800985,0.88366 0.232544,0.54777 0.232544,1.54513 z m -2.092896,-1.11621 v -0.50126 q 0,-0.53227 -0.05684,-0.6873 -0.05684,-0.15503 -0.232544,-0.15503 -0.217041,0 -0.268717,0.13436 -0.05168,0.12919 -0.05168,0.70797 v 0.50126 z"
         style="font-style:normal;font-variant:normal;font-weight:normal;font-stretch:normal;font-size:10.58333302px;line-height:0;font-family:Impact;-inkscape-font-specification:Impact;fill:#2151a8;fill-opacity:1;stroke-width:0.26458332"
         id="path5324" />
      <path
         d="m 87.37717,103.79297 -0.08268,0.89917 q 0.454752,-0.96635 1.317749,-1.02319 v 2.41329 q -0.573609,0 -0.842326,0.15503 -0.268718,0.15503 -0.330729,0.43408 -0.06201,0.27388 -0.06201,1.27124 v 2.70784 h -2.087728 v -6.85746 z"
         style="font-style:normal;font-variant:normal;font-weight:normal;font-stretch:normal;font-size:10.58333302px;line-height:0;font-family:Impact;-inkscape-font-specification:Impact;fill:#2151a8;fill-opacity:1;stroke-width:0.26458332"
         id="path5326" />
      <path
         d="m 91.459608,102.8783 v 1.08004 h 0.563273 v 1.0852 h -0.563273 v 3.66903 q 0,0.67696 0.06718,0.75447 0.07235,0.0775 0.583944,0.0775 v 1.10587 h -0.842326 q -0.713135,0 -1.018025,-0.0568 -0.304891,-0.062 -0.537435,-0.27388 -0.232544,-0.21705 -0.289388,-0.49093 -0.05684,-0.27905 -0.05684,-1.30225 v -3.48299 h -0.449585 v -1.0852 h 0.449585 v -1.08004 z"
         style="font-style:normal;font-variant:normal;font-weight:normal;font-stretch:normal;font-size:10.58333302px;line-height:0;font-family:Impact;-inkscape-font-specification:Impact;fill:#2151a8;fill-opacity:1;stroke-width:0.26458332"
         id="path5328" />
    </g>
  </g>
</svg>
