<?xml version="1.0" encoding="UTF-8" standalone="no"?>
<svg
   xmlns:dc="http://purl.org/dc/elements/1.1/"
   xmlns:cc="http://creativecommons.org/ns#"
   xmlns:rdf="http://www.w3.org/1999/02/22-rdf-syntax-ns#"
   xmlns:svg="http://www.w3.org/2000/svg"
   xmlns="http://www.w3.org/2000/svg"
   xmlns:sodipodi="http://sodipodi.sourceforge.net/DTD/sodipodi-0.dtd"
   xmlns:inkscape="http://www.inkscape.org/namespaces/inkscape"
   viewBox="0 0 180 210.66667"
   height="210.66667"
   width="180"
   xml:space="preserve"
   id="svg2"
   version="1.1"
   sodipodi:docname="logoDjandjan.svg"
   inkscape:version="0.92.3 (2405546, 2018-03-11)"><sodipodi:namedview
     pagecolor="#ffffff"
     bordercolor="#666666"
     borderopacity="1"
     objecttolerance="10"
     gridtolerance="10"
     guidetolerance="10"
     inkscape:pageopacity="0"
     inkscape:pageshadow="2"
     inkscape:window-width="1920"
     inkscape:window-height="1001"
     id="namedview5671"
     showgrid="false"
     inkscape:zoom="3.5136484"
     inkscape:cx="43.923456"
     inkscape:cy="92.541019"
     inkscape:window-x="-9"
     inkscape:window-y="-9"
     inkscape:window-maximized="1"
     inkscape:current-layer="svg2" /><metadata
     id="metadata8"><rdf:RDF><cc:Work
         rdf:about=""><dc:format>image/svg+xml</dc:format><dc:type
           rdf:resource="http://purl.org/dc/dcmitype/StillImage" /></cc:Work></rdf:RDF></metadata><defs
     id="defs6"><clipPath
   id="clipPath14"
   clipPathUnits="userSpaceOnUse"><path
     id="path12"
     d="M 0,0 H 431.6693 V 309.7795 H 0 Z" /></clipPath><clipPath
   id="clipPath26"
   clipPathUnits="userSpaceOnUse"><path
     id="path24"
     d="M 33,276.779 H 398.669 V 33 H 33 Z" /></clipPath><clipPath
   id="clipPath1094"
   clipPathUnits="userSpaceOnUse"><path
     id="path1092"
     d="m 14.5,296.279 16.983,0.786 v -1.571 z" /></clipPath><clipPath
   id="clipPath1106"
   clipPathUnits="userSpaceOnUse"><path
     id="path1104"
     d="m 14.485,296.106 16.861,-2.176 -0.273,-1.546 z" /></clipPath><clipPath
   id="clipPath1118"
   clipPathUnits="userSpaceOnUse"><path
     id="path1116"
     d="m 14.44,295.937 16.227,-5.07 -0.537,-1.476 z" /></clipPath><clipPath
   id="clipPath1130"
   clipPathUnits="userSpaceOnUse"><path
     id="path1128"
     d="m 14.366,295.779 15.1,-7.811 -0.785,-1.36 z" /></clipPath><clipPath
   id="clipPath1142"
   clipPathUnits="userSpaceOnUse"><path
     id="path1140"
     d="M 14.266,295.637 27.78,285.322 26.771,284.119 Z" /></clipPath><clipPath
   id="clipPath1154"
   clipPathUnits="userSpaceOnUse"><path
     id="path1152"
     d="m 14.143,295.513 11.518,-12.505 -1.203,-1.009 z" /></clipPath><clipPath
   id="clipPath1166"
   clipPathUnits="userSpaceOnUse"><path
     id="path1164"
     d="m 14,295.413 9.171,-14.315 -1.36,-0.785 z" /></clipPath><clipPath
   id="clipPath1178"
   clipPathUnits="userSpaceOnUse"><path
     id="path1176"
     d="m 13.842,295.34 6.546,-15.69 -1.475,-0.537 z" /></clipPath><clipPath
   id="clipPath1190"
   clipPathUnits="userSpaceOnUse"><path
     id="path1188"
     d="m 13.674,295.295 3.722,-16.589 -1.547,-0.273 z" /></clipPath><clipPath
   id="clipPath1202"
   clipPathUnits="userSpaceOnUse"><path
     id="path1200"
     d="m 13.5,295.279 0.785,-16.982 h -1.57 z" /></clipPath><clipPath
   id="clipPath1214"
   clipPathUnits="userSpaceOnUse"><path
     id="path1212"
     d="m 13.326,295.295 -2.175,-16.862 -1.547,0.273 z" /></clipPath><clipPath
   id="clipPath1226"
   clipPathUnits="userSpaceOnUse"><path
     id="path1224"
     d="M 13.158,295.34 8.087,279.113 6.612,279.65 Z" /></clipPath><clipPath
   id="clipPath1238"
   clipPathUnits="userSpaceOnUse"><path
     id="path1236"
     d="m 13,295.413 -7.811,-15.1 -1.36,0.785 z" /></clipPath><clipPath
   id="clipPath1250"
   clipPathUnits="userSpaceOnUse"><path
     id="path1248"
     d="M 12.857,295.513 2.542,281.999 1.339,283.008 Z" /></clipPath><clipPath
   id="clipPath1262"
   clipPathUnits="userSpaceOnUse"><path
     id="path1260"
     d="M 12.734,295.637 0.229,284.119 -0.78,285.322 Z" /></clipPath><clipPath
   id="clipPath1274"
   clipPathUnits="userSpaceOnUse"><path
     id="path1272"
     d="m 12.634,295.779 -14.315,-9.171 -0.785,1.36 z" /></clipPath><clipPath
   id="clipPath1286"
   clipPathUnits="userSpaceOnUse"><path
     id="path1284"
     d="m 12.56,295.937 -15.69,-6.546 -0.537,1.476 z" /></clipPath><clipPath
   id="clipPath1298"
   clipPathUnits="userSpaceOnUse"><path
     id="path1296"
     d="m 12.515,296.106 -16.588,-3.722 -0.273,1.546 z" /></clipPath><clipPath
   id="clipPath1310"
   clipPathUnits="userSpaceOnUse"><path
     id="path1308"
     d="m 12.5,296.279 -16.983,-0.785 v 1.571 z" /></clipPath><clipPath
   id="clipPath1322"
   clipPathUnits="userSpaceOnUse"><path
     id="path1320"
     d="m 12.515,296.453 -16.861,2.176 0.273,1.546 z" /></clipPath><clipPath
   id="clipPath1334"
   clipPathUnits="userSpaceOnUse"><path
     id="path1332"
     d="m 12.56,296.621 -16.227,5.071 0.537,1.476 z" /></clipPath><clipPath
   id="clipPath1346"
   clipPathUnits="userSpaceOnUse"><path
     id="path1344"
     d="m 12.634,296.779 -15.1,7.812 0.785,1.36 z" /></clipPath><clipPath
   id="clipPath1358"
   clipPathUnits="userSpaceOnUse"><path
     id="path1356"
     d="M 12.734,296.922 -0.78,307.237 0.229,308.44 Z" /></clipPath><clipPath
   id="clipPath1370"
   clipPathUnits="userSpaceOnUse"><path
     id="path1368"
     d="M 12.857,297.046 1.339,309.55 2.542,310.56 Z" /></clipPath><clipPath
   id="clipPath1382"
   clipPathUnits="userSpaceOnUse"><path
     id="path1380"
     d="m 13,297.146 -9.171,14.315 1.36,0.785 z" /></clipPath><clipPath
   id="clipPath1394"
   clipPathUnits="userSpaceOnUse"><path
     id="path1392"
     d="m 13.158,297.219 -6.546,15.69 1.475,0.537 z" /></clipPath><clipPath
   id="clipPath1406"
   clipPathUnits="userSpaceOnUse"><path
     id="path1404"
     d="m 13.326,297.264 -3.722,16.589 1.547,0.272 z" /></clipPath><clipPath
   id="clipPath1418"
   clipPathUnits="userSpaceOnUse"><path
     id="path1416"
     d="m 13.5,297.279 -0.785,16.983 h 1.57 z" /></clipPath><clipPath
   id="clipPath1430"
   clipPathUnits="userSpaceOnUse"><path
     id="path1428"
     d="m 13.674,297.264 2.175,16.861 1.547,-0.272 z" /></clipPath><clipPath
   id="clipPath1442"
   clipPathUnits="userSpaceOnUse"><path
     id="path1440"
     d="m 13.842,297.219 5.071,16.227 1.475,-0.537 z" /></clipPath><clipPath
   id="clipPath1454"
   clipPathUnits="userSpaceOnUse"><path
     id="path1452"
     d="m 14,297.146 7.811,15.1 1.36,-0.785 z" /></clipPath><clipPath
   id="clipPath1466"
   clipPathUnits="userSpaceOnUse"><path
     id="path1464"
     d="m 14.143,297.046 10.315,13.514 1.203,-1.01 z" /></clipPath><clipPath
   id="clipPath1478"
   clipPathUnits="userSpaceOnUse"><path
     id="path1476"
     d="m 14.266,296.922 12.505,11.518 1.009,-1.203 z" /></clipPath><clipPath
   id="clipPath1490"
   clipPathUnits="userSpaceOnUse"><path
     id="path1488"
     d="m 14.366,296.779 14.315,9.172 0.785,-1.36 z" /></clipPath><clipPath
   id="clipPath1502"
   clipPathUnits="userSpaceOnUse"><path
     id="path1500"
     d="m 14.44,296.621 15.69,6.547 0.537,-1.476 z" /></clipPath><clipPath
   id="clipPath1514"
   clipPathUnits="userSpaceOnUse"><path
     id="path1512"
     d="m 14.485,296.453 16.588,3.722 0.273,-1.546 z" /></clipPath><clipPath
   id="clipPath1534"
   clipPathUnits="userSpaceOnUse"><path
     id="path1532"
     d="m 419.169,13.5 16.983,0.785 v -1.57 z" /></clipPath><clipPath
   id="clipPath1546"
   clipPathUnits="userSpaceOnUse"><path
     id="path1544"
     d="m 419.154,13.326 16.861,-2.175 -0.272,-1.547 z" /></clipPath><clipPath
   id="clipPath1558"
   clipPathUnits="userSpaceOnUse"><path
     id="path1556"
     d="M 419.109,13.158 435.336,8.087 434.799,6.612 Z" /></clipPath><clipPath
   id="clipPath1570"
   clipPathUnits="userSpaceOnUse"><path
     id="path1568"
     d="m 419.035,13 15.1,-7.811 -0.785,-1.36 z" /></clipPath><clipPath
   id="clipPath1582"
   clipPathUnits="userSpaceOnUse"><path
     id="path1580"
     d="M 418.935,12.857 432.45,2.542 431.44,1.339 Z" /></clipPath><clipPath
   id="clipPath1594"
   clipPathUnits="userSpaceOnUse"><path
     id="path1592"
     d="M 418.812,12.734 430.33,0.229 429.127,-0.78 Z" /></clipPath><clipPath
   id="clipPath1606"
   clipPathUnits="userSpaceOnUse"><path
     id="path1604"
     d="m 418.669,12.634 9.172,-14.315 -1.36,-0.785 z" /></clipPath><clipPath
   id="clipPath1618"
   clipPathUnits="userSpaceOnUse"><path
     id="path1616"
     d="m 418.511,12.56 6.547,-15.69 -1.476,-0.537 z" /></clipPath><clipPath
   id="clipPath1630"
   clipPathUnits="userSpaceOnUse"><path
     id="path1628"
     d="m 418.343,12.515 3.722,-16.588 -1.546,-0.273 z" /></clipPath><clipPath
   id="clipPath1642"
   clipPathUnits="userSpaceOnUse"><path
     id="path1640"
     d="m 418.169,12.5 0.785,-16.983 h -1.57 z" /></clipPath><clipPath
   id="clipPath1654"
   clipPathUnits="userSpaceOnUse"><path
     id="path1652"
     d="m 417.996,12.515 -2.176,-16.861 -1.547,0.273 z" /></clipPath><clipPath
   id="clipPath1666"
   clipPathUnits="userSpaceOnUse"><path
     id="path1664"
     d="m 417.827,12.56 -5.07,-16.227 -1.476,0.537 z" /></clipPath><clipPath
   id="clipPath1678"
   clipPathUnits="userSpaceOnUse"><path
     id="path1676"
     d="m 417.669,12.634 -7.811,-15.1 -1.36,0.785 z" /></clipPath><clipPath
   id="clipPath1690"
   clipPathUnits="userSpaceOnUse"><path
     id="path1688"
     d="M 417.526,12.734 407.212,-0.78 406.009,0.229 Z" /></clipPath><clipPath
   id="clipPath1702"
   clipPathUnits="userSpaceOnUse"><path
     id="path1700"
     d="M 417.403,12.857 404.898,1.339 403.889,2.542 Z" /></clipPath><clipPath
   id="clipPath1714"
   clipPathUnits="userSpaceOnUse"><path
     id="path1712"
     d="m 417.303,13 -14.315,-9.171 -0.785,1.36 z" /></clipPath><clipPath
   id="clipPath1726"
   clipPathUnits="userSpaceOnUse"><path
     id="path1724"
     d="M 417.23,13.158 401.539,6.612 401.002,8.087 Z" /></clipPath><clipPath
   id="clipPath1738"
   clipPathUnits="userSpaceOnUse"><path
     id="path1736"
     d="m 417.184,13.326 -16.588,-3.722 -0.273,1.547 z" /></clipPath><clipPath
   id="clipPath1750"
   clipPathUnits="userSpaceOnUse"><path
     id="path1748"
     d="m 417.169,13.5 -16.983,-0.785 v 1.57 z" /></clipPath><clipPath
   id="clipPath1762"
   clipPathUnits="userSpaceOnUse"><path
     id="path1760"
     d="m 417.184,13.674 -16.861,2.175 0.273,1.547 z" /></clipPath><clipPath
   id="clipPath1774"
   clipPathUnits="userSpaceOnUse"><path
     id="path1772"
     d="m 417.23,13.842 -16.228,5.071 0.537,1.475 z" /></clipPath><clipPath
   id="clipPath1786"
   clipPathUnits="userSpaceOnUse"><path
     id="path1784"
     d="m 417.303,14 -15.1,7.811 0.785,1.36 z" /></clipPath><clipPath
   id="clipPath1798"
   clipPathUnits="userSpaceOnUse"><path
     id="path1796"
     d="m 417.403,14.143 -13.514,10.315 1.009,1.203 z" /></clipPath><clipPath
   id="clipPath1810"
   clipPathUnits="userSpaceOnUse"><path
     id="path1808"
     d="m 417.526,14.266 -11.517,12.505 1.203,1.009 z" /></clipPath><clipPath
   id="clipPath1822"
   clipPathUnits="userSpaceOnUse"><path
     id="path1820"
     d="m 417.669,14.366 -9.171,14.315 1.36,0.785 z" /></clipPath><clipPath
   id="clipPath1834"
   clipPathUnits="userSpaceOnUse"><path
     id="path1832"
     d="m 417.827,14.44 -6.546,15.69 1.476,0.537 z" /></clipPath><clipPath
   id="clipPath1846"
   clipPathUnits="userSpaceOnUse"><path
     id="path1844"
     d="m 417.996,14.485 -3.723,16.588 1.547,0.273 z" /></clipPath><clipPath
   id="clipPath1858"
   clipPathUnits="userSpaceOnUse"><path
     id="path1856"
     d="m 418.169,14.5 -0.785,16.983 h 1.57 z" /></clipPath><clipPath
   id="clipPath1870"
   clipPathUnits="userSpaceOnUse"><path
     id="path1868"
     d="m 418.343,14.485 2.176,16.861 1.546,-0.273 z" /></clipPath><clipPath
   id="clipPath1882"
   clipPathUnits="userSpaceOnUse"><path
     id="path1880"
     d="m 418.511,14.44 5.071,16.227 1.476,-0.537 z" /></clipPath><clipPath
   id="clipPath1894"
   clipPathUnits="userSpaceOnUse"><path
     id="path1892"
     d="m 418.669,14.366 7.812,15.1 1.36,-0.785 z" /></clipPath><clipPath
   id="clipPath1906"
   clipPathUnits="userSpaceOnUse"><path
     id="path1904"
     d="m 418.812,14.266 10.315,13.514 1.203,-1.009 z" /></clipPath><clipPath
   id="clipPath1918"
   clipPathUnits="userSpaceOnUse"><path
     id="path1916"
     d="m 418.935,14.143 12.505,11.518 1.01,-1.203 z" /></clipPath><clipPath
   id="clipPath1930"
   clipPathUnits="userSpaceOnUse"><path
     id="path1928"
     d="m 419.035,14 14.315,9.171 0.785,-1.36 z" /></clipPath><clipPath
   id="clipPath1942"
   clipPathUnits="userSpaceOnUse"><path
     id="path1940"
     d="m 419.109,13.842 15.69,6.546 0.537,-1.475 z" /></clipPath><clipPath
   id="clipPath1954"
   clipPathUnits="userSpaceOnUse"><path
     id="path1952"
     d="m 419.154,13.674 16.589,3.722 0.272,-1.547 z" /></clipPath>








</defs><path
     inkscape:connector-curvature="0"
     d="m 37.937464,139.12374 c 0,0 4.649333,-17.828 7.186666,-20.37733 2.533334,-2.544 0,-5.09334 0,-5.09334 0,0 -4.650666,-10.18933 -4.650666,-14.858662 0,-4.669334 -2.536,-12.736 -2.536,-12.736 0,0 -5.493333,-8.916 -6.761333,-10.188 -1.268,-1.274666 -4.226667,-4.246666 -1.268,-4.246666 2.957333,0 12.044,2.761333 15.215999,5.944 3.169334,3.185333 13.101333,9.550666 13.101333,6.367999 V 67.379742 c 0,-3.396 -2.113333,-13.162667 -2.113333,-13.162667 0,0 12.466667,7.641334 12.466667,12.522667 0,4.884 6.129333,11.252 8.242666,11.252 2.113333,0 16.270666,-2.337334 18.596,0 2.325333,2.335999 9.299997,6.794666 19.865337,3.821333 10.568,-2.970667 15.216,-3.396 15.216,-3.396 l 7.18533,-2.546667 c 0,0 7.82,11.248 1.268,17.830666 -6.55067,6.579996 -12.25867,11.035996 -16.06133,11.035996 -3.804,0 -15.63734,6.37067 -15.63734,6.37067 0,0 30.008,-5.94533 33.81333,1.696 3.80134,7.64267 5.916,10.61733 3.80134,12.736 -2.112,2.12267 -2.112,5.52133 -2.112,5.52133 l -2.95867,-5.52133 -7.60933,2.972 c 0,0 -17.96133,-0.208 -20.708,2.54933 -2.748,2.76 -4.65067,2.54667 -4.65067,2.54667 0,0 -3.80266,4.66933 -3.80266,8.068 0,3.39333 -2.96,7.64133 -2.96,7.64133 0,0 -3.369337,6.60934 -6.266671,6.60934 -2.894666,0 -31.134666,-5.43067 -31.134666,-5.43067 l -10.135999,-10.5 z"
     style="fill:#2151a8;fill-opacity:1;fill-rule:nonzero;stroke:none;stroke-width:1.33333325"
     id="path234" /><path
     inkscape:connector-curvature="0"
     d="m 37.937464,139.12374 c 0,0 4.649333,-17.828 7.186666,-20.37733 2.533334,-2.544 0,-5.09334 0,-5.09334 0,0 -4.650666,-10.18933 -4.650666,-14.858662 0,-4.669334 -2.536,-12.736 -2.536,-12.736 0,0 -5.493333,-8.916 -6.761333,-10.188 -1.268,-1.274666 -4.226667,-4.246666 -1.268,-4.246666 2.957333,0 12.044,2.761333 15.215999,5.944 3.169334,3.185333 13.101333,9.550666 13.101333,6.367999 V 67.379742 c 0,-3.396 -2.113333,-13.162667 -2.113333,-13.162667 0,0 12.466667,7.641334 12.466667,12.522667 0,4.884 6.129333,11.252 8.242666,11.252 2.113333,0 16.270666,-2.337334 18.596,0 2.325333,2.335999 9.299997,6.794666 19.865337,3.821333 10.568,-2.970667 15.216,-3.396 15.216,-3.396 l 7.18533,-2.546667 c 0,0 7.82,11.248 1.268,17.830666 -6.55067,6.579996 -12.25867,11.035996 -16.06133,11.035996 -3.804,0 -15.63734,6.37067 -15.63734,6.37067 0,0 30.008,-5.94533 33.81333,1.696 3.80134,7.64267 5.916,10.61733 3.80134,12.736 -2.112,2.12267 -2.112,5.52133 -2.112,5.52133 l -2.95867,-5.52133 -7.60933,2.972 c 0,0 -17.96133,-0.208 -20.708,2.54933 -2.748,2.76 -4.65067,2.54667 -4.65067,2.54667 0,0 -3.80266,4.66933 -3.80266,8.068 0,3.39333 -2.96,7.64133 -2.96,7.64133 0,0 -3.369337,6.60934 -6.266671,6.60934 -2.894666,0 -31.134666,-5.43067 -31.134666,-5.43067 l -10.135999,-10.5 z"
     style="fill:none;stroke:#2151a8;stroke-width:1.7906667;stroke-linecap:butt;stroke-linejoin:round;stroke-miterlimit:4;stroke-dasharray:none;stroke-opacity:1"
     id="path238" /><path
     inkscape:connector-curvature="0"
     d="m 22.378931,67.074943 -9.328,-2.529333 8.364,4.373333 -1.112,2.126667 -10.3359997,-5.404 1.6226667,-3.105334 8.948,2.222667 -6.932,-6.078666 1.625333,-3.105334 10.336,5.402667 -1.112,2.126666 -8.365333,-4.371999 7.401333,6.215999 z"
     style="fill:#2151a8;fill-opacity:1;fill-rule:nonzero;stroke:none;stroke-width:1.33333325"
     id="path242" /><path
     inkscape:connector-curvature="0"
     d="m 26.259064,53.20441 c -0.068,0.742667 -0.606667,1.42 -0.86,1.949333 -0.304,0.630667 -0.124,1.358667 0.557333,1.621334 0.488,0.201333 1.021334,0.096 1.461334,-0.770667 0.62,-1.193333 0.016,-1.937333 -0.757334,-2.505333 z m 3.437333,2.213333 c -0.26,0.0053 -0.601333,-0.126666 -0.836,-0.32 0.128,1.068 0.117334,1.916 -0.658666,2.972 -1.044,1.417334 -2.354667,1.525334 -3.669334,0.477334 -0.950666,-0.758667 -1.62,-1.846667 -0.713333,-3.644 0.466667,-0.689334 0.844,-1.525334 1.013333,-2.054667 0.121334,-0.406667 -0.1,-0.808 -0.453333,-1.029333 -0.437333,-0.322667 -0.896,-0.104 -1.502667,0.72 -0.76,1.030666 -0.224,1.625333 0.26,2.021333 l -1.252,1.7 c -2.210666,-1.666667 -1.013333,-3.725333 -0.310666,-4.678667 0.513333,-0.696 1.073333,-1.216 1.472,-1.46 0.797333,-0.486666 1.770666,-0.622666 2.877333,0.193334 l 3.814667,2.806666 c 0.3,0.241334 0.742666,0.288 1.12,0.208 l 0.245333,0.18 z"
     style="fill:#2151a8;fill-opacity:1;fill-rule:nonzero;stroke:none;stroke-width:1.33333325"
     id="path246" /><path
     inkscape:connector-curvature="0"
     d="m 24.983064,42.919343 8.718666,7.748 -1.486666,1.674666 -8.718667,-7.747999 z"
     style="fill:#2151a8;fill-opacity:1;fill-rule:nonzero;stroke:none;stroke-width:1.33333325"
     id="path250" /><path
     inkscape:connector-curvature="0"
     d="m 29.105464,42.90881 1.585333,-1.58 6.12,6.145333 -1.588,1.58 z m -2.112,-2.12 1.588,-1.58 1.409333,1.417333 -1.585333,1.58 z"
     style="fill:#2151a8;fill-opacity:1;fill-rule:nonzero;stroke:none;stroke-width:1.33333325"
     id="path254" /><path
     inkscape:connector-curvature="0"
     d="m 32.839864,39.205077 1.734667,-1.417333 0.830666,1.014666 0.02267,-0.02 c -0.241333,-0.98 0.05733,-1.928 0.726667,-2.474666 1.537333,-1.256 3.104,-1.462667 4.482666,0.222666 l 3.674667,4.496 -1.732,1.417334 -3.264,-3.988 c -0.486667,-0.594667 -1.137333,-1.24 -2.314667,-0.277334 -1.052,0.86 -0.786666,1.614667 -0.341333,2.16 l 3.404,4.161334 -1.734667,1.418666 z"
     style="fill:#2151a8;fill-opacity:1;fill-rule:nonzero;stroke:none;stroke-width:1.33333325"
     id="path258" /><path
     inkscape:connector-curvature="0"
     d="m 44.75133,33.645877 c 0.02667,0.378667 0.158667,1.049333 0.533333,1.662667 0.378667,0.613333 0.917334,1.032 1.245334,1.226666 0.729333,0.394667 1.396,0.286667 1.872,-0.0067 0.477333,-0.293334 0.876,-0.838667 0.852,-1.669334 -0.02667,-0.378666 -0.156,-1.049333 -0.533334,-1.662666 -0.378666,-0.613334 -0.917333,-1.033334 -1.242666,-1.226667 -0.732,-0.396 -1.396,-0.286667 -1.874667,0.0067 -0.477333,0.293333 -0.873333,0.837333 -0.852,1.669333 m 1.554667,5.185333 c -1.145334,-0.214666 -2.202667,-1.141333 -2.942667,-2.341333 -0.737333,-1.2 -1.085333,-2.562667 -0.76,-3.682667 0.286667,-1.001333 1.041333,-1.88 1.994667,-2.466666 0.956,-0.586667 2.08,-0.865334 3.101333,-0.666667 1.148,0.214667 2.205333,1.141333 2.942667,2.341333 0.737333,1.198667 1.087999,2.561334 0.762666,3.682667 -0.286666,1.001333 -1.041333,1.88 -1.997333,2.466667 -0.953333,0.586666 -2.077333,0.865333 -3.101333,0.666666"
     style="fill:#2151a8;fill-opacity:1;fill-rule:nonzero;stroke:none;stroke-width:1.33333325"
     id="path262" /><path
     inkscape:connector-curvature="0"
     d="m 50.673197,27.101611 2.013333,-0.98 3.793334,7.797333 -2.014667,0.981333 z m -1.309333,-2.690667 2.012,-0.98 0.876,1.798667 -2.013334,0.98 z"
     style="fill:#2151a8;fill-opacity:1;fill-rule:nonzero;stroke:none;stroke-width:1.33333325"
     id="path266" /><path
     inkscape:connector-curvature="0"
     d="m 59.069063,30.004544 c 0.64,0.836 1.292,0.658667 2.26,0.465333 1.589333,-0.462666 1.06,-1.956 0.169333,-1.825333 l -2.888,0.233333 c -1.64,0.138667 -2.189333,-0.594666 -2.481333,-1.322666 -0.414667,-1.057334 -0.164,-1.938667 0.188,-2.497334 0.328,-0.534666 1.046667,-1.08 1.902667,-1.436 0.86,-0.357333 1.849333,-0.542666 2.742666,-0.349333 1.413334,0.305333 1.784,1.106667 2.010667,1.705333 l -2.021333,0.761334 c -0.208,-0.504 -0.38,-0.78 -1.169334,-0.74 -0.533333,0.03067 -1.153333,0.161333 -1.650666,0.742666 -0.297334,0.350667 -0.210667,1.122667 0.58,1.045334 l 3.336,-0.314667 c 0.808,-0.08267 1.868,0.373333 2.250666,1.392 0.304,0.808 0.421334,2.250667 -0.770666,3.264 -0.494667,0.409333 -1.210667,0.781333 -1.934667,1.037333 -0.714667,0.234667 -1.412,0.377334 -1.898667,0.356 -1.854666,-0.105333 -2.48,-1.221333 -2.690666,-1.74 z"
     style="fill:#2151a8;fill-opacity:1;fill-rule:nonzero;stroke:none;stroke-width:1.33333325"
     id="path270" /><path
     inkscape:connector-curvature="0"
     d="m 72.14973,22.643877 c -0.101333,0.358667 -0.213333,1.026667 -0.09333,1.736 0.121333,0.709333 0.450666,1.304 0.664,1.608 0.5,0.645333 1.126666,0.797333 1.645333,0.709333 0.505333,-0.08667 1.046667,-0.438666 1.305333,-1.213333 0.101334,-0.357333 0.213334,-1.025333 0.09333,-1.736 -0.122667,-0.709333 -0.450667,-1.302667 -0.664,-1.606667 -0.5,-0.645333 -1.128,-0.798666 -1.633334,-0.712 -0.517333,0.088 -1.06,0.44 -1.317333,1.214667 m 6.536,4.922667 -2.208,0.377333 -0.153333,-0.898667 -0.032,0.0053 c -0.448,0.984 -1.265334,1.432 -1.952,1.582666 -1.534667,0.326667 -2.524,-0.137333 -3.428,-1.444 -0.478667,-0.713333 -0.864,-1.444 -1.052,-2.272 -0.189334,-0.828 -0.186667,-1.753333 0.08133,-2.854666 0.442667,-1.78 1.806667,-2.254667 2.601333,-2.44 1.424,-0.308 2.197334,0.225333 2.637334,0.897333 l 0.032,-0.0053 -0.702667,-4.116 2.208,-0.376 z"
     style="fill:#2151a8;fill-opacity:1;fill-rule:nonzero;stroke:none;stroke-width:1.33333325"
     id="path274" /><path
     inkscape:connector-curvature="0"
     d="m 88.493463,27.040411 -2.24,0.07733 -0.036,-1.072 -0.03067,0.0013 c -0.586666,1.093333 -1.281333,1.373333 -2.062666,1.512 -1.232,0.02667 -3.250667,-0.032 -3.445333,-2.890667 l -0.206667,-6.029333 2.237333,-0.076 0.185333,5.372 c -0.0053,0.769333 0.028,1.744 1.674667,1.624 1.353333,-0.190667 1.552,-0.966667 1.58,-1.512 l -0.192,-5.596 2.236,-0.07733 z"
     style="fill:#2151a8;fill-opacity:1;fill-rule:nonzero;stroke:none;stroke-width:1.33333325"
     id="path278" /><path
     inkscape:connector-curvature="0"
     d="m 97.894529,25.865211 1.890667,0.329333 c 1.088004,0.188 2.026664,-0.07067 2.745334,-1.114666 0.36133,-0.505334 0.684,-1.424 0.83333,-2.373334 0.16667,-0.961333 0.16134,-1.952 -0.14933,-2.608 -0.44533,-0.985333 -1.028,-1.266666 -1.88,-1.414666 l -2.128001,-0.369333 z m -0.710667,-9.932 5.343998,0.929334 c 1.18134,0.204 2.564,1.029333 3.208,3.317333 0.15334,0.514666 0.26534,1.458666 0.06,2.641333 -0.34666,2.001333 -1.11466,3.330667 -1.792,4.057333 -1.00266,1.092 -2.432,1.656 -3.63066,1.448 l -5.186671,-0.901333 z"
     style="fill:#2151a8;fill-opacity:1;fill-rule:nonzero;stroke:none;stroke-width:1.33333325"
     id="path282" /><path
     inkscape:connector-curvature="0"
     d="m 109.668,18.502011 2.15067,0.626667 -0.56,1.92 -2.148,-0.626667 z m -0.836,2.873333 2.15067,0.626667 -2.87467,9.877333 c -0.24533,0.778667 -0.96133,1.402667 -1.752,1.322667 -0.63067,-0.06667 -1.31067,-0.248 -1.94,-0.432 l 0.512,-1.766667 c 0.38533,0.112 0.98,0.418667 1.18533,-0.288 z"
     style="fill:#2151a8;fill-opacity:1;fill-rule:nonzero;stroke:none;stroke-width:1.33333325"
     id="path286" /><path
     inkscape:connector-curvature="0"
     d="m 116.48826,28.854144 c -0.73467,0.122667 -1.52667,-0.224 -2.104,-0.332 -0.688,-0.133333 -1.344,0.225333 -1.424,0.950667 -0.0707,0.524 0.16667,1.013333 1.11867,1.216 1.31333,0.294666 1.876,-0.48 2.22666,-1.373334 z m -1.25733,3.889333 c -0.0733,-0.252 -0.0347,-0.614666 0.0933,-0.892 -1,0.397334 -1.82267,0.605334 -3.04133,0.124 -1.63867,-0.646666 -2.07867,-1.886666 -1.40134,-3.425333 0.492,-1.113333 1.372,-2.038667 3.34134,-1.622667 0.78666,0.276 1.68933,0.426667 2.244,0.456 0.42533,0.01333 0.75866,-0.304 0.88133,-0.701333 0.19733,-0.506667 -0.13067,-0.894667 -1.08133,-1.270667 -1.19334,-0.469333 -1.628,0.201334 -1.888,0.769334 l -1.964,-0.774667 c 1.04666,-2.564 3.34133,-1.932 4.44266,-1.497333 0.80534,0.317333 1.45067,0.726666 1.78934,1.049333 0.67466,0.645333 1.05466,1.552 0.54933,2.832 l -1.73867,4.405333 c -0.15466,0.352 -0.0893,0.790667 0.0853,1.134667 l -0.112,0.282667 z"
     style="fill:#2151a8;fill-opacity:1;fill-rule:nonzero;stroke:none;stroke-width:1.33333325"
     id="path290" /><path
     inkscape:connector-curvature="0"
     d="m 123.01426,26.681611 1.95867,1.084 -0.636,1.148 0.0293,0.016 c 0.82,-0.589333 1.812,-0.662667 2.56667,-0.245333 1.73733,0.961333 2.51066,2.34 1.456,4.244 l -2.80934,5.082666 -1.96133,-1.084 2.492,-4.509333 c 0.37333,-0.672 0.72933,-1.516 -0.59867,-2.252 -1.19066,-0.657333 -1.792,-0.132 -2.13333,0.484 l -2.60133,4.704 -1.96,-1.084 z"
     style="fill:#2151a8;fill-opacity:1;fill-rule:nonzero;stroke:none;stroke-width:1.33333325"
     id="path294" /><path
     inkscape:connector-curvature="0"
     d="m 134.26693,41.869743 1.45333,1.256 c 0.83334,0.722667 1.77067,0.985333 2.924,0.46 0.57334,-0.245333 1.32267,-0.866667 1.93734,-1.604 0.64133,-0.737333 1.14666,-1.590667 1.21866,-2.310667 0.12534,-1.076 -0.23066,-1.616 -0.88266,-2.182666 l -1.63467,-1.413334 z m 4.51067,-8.877333 4.10133,3.549333 c 0.90667,0.785333 1.66667,2.205333 1.03867,4.496 -0.132,0.521333 -0.52267,1.388 -1.30934,2.296 -1.33066,1.536 -2.672,2.28 -3.628,2.552 -1.42133,0.42 -2.93733,0.166667 -3.856,-0.629333 l -3.98,-3.445334 z"
     style="fill:#2151a8;fill-opacity:1;fill-rule:nonzero;stroke:none;stroke-width:1.33333325"
     id="path298" /><path
     inkscape:connector-curvature="0"
     d="m 148.14719,41.615877 1.52133,1.642667 -1.46666,1.358666 -1.524,-1.641333 z m -2.19467,2.033333 1.52267,1.642667 -7.54667,6.993333 c -0.60933,0.542667 -1.544,0.712 -2.18266,0.234667 -0.50534,-0.381334 -0.99734,-0.886667 -1.44267,-1.369334 l 1.34933,-1.250666 c 0.27334,0.294666 0.62534,0.862666 1.164,0.361333 z"
     style="fill:#2151a8;fill-opacity:1;fill-rule:nonzero;stroke:none;stroke-width:1.33333325"
     id="path302" /><path
     inkscape:connector-curvature="0"
     d="m 148.67319,53.990277 c -0.69467,-0.273333 -1.19733,-0.977333 -1.636,-1.365333 -0.52267,-0.468 -1.27067,-0.496 -1.71333,0.08533 -0.32534,0.413333 -0.37467,0.954667 0.33866,1.618667 0.97467,0.925333 1.85734,0.549333 2.61734,-0.036 z m -3.07867,2.692 c 0.068,-0.254667 0.28934,-0.545333 0.54,-0.718667 -1.06266,-0.172 -1.876,-0.414666 -2.67466,-1.453333 -1.07334,-1.396 -0.81467,-2.685333 0.55733,-3.658667 0.992,-0.704 2.224,-1.045333 3.69733,0.321334 0.53467,0.64 1.232,1.233333 1.696,1.544 0.356,0.229333 0.804,0.128 1.11467,-0.152 0.42933,-0.330667 0.34533,-0.832 -0.276,-1.644 -0.78133,-1.014667 -1.5,-0.662667 -2.016,-0.308 l -1.28667,-1.673334 c 2.21067,-1.662666 3.86,0.05733 4.58134,0.994667 0.528,0.685333 0.872,1.369333 0.99733,1.818667 0.24667,0.9 0.10933,1.874666 -0.98267,2.713333 l -3.752,2.888 c -0.31466,0.222667 -0.48133,0.634667 -0.51066,1.018667 l -0.24,0.185333 z"
     style="fill:#2151a8;fill-opacity:1;fill-rule:nonzero;stroke:none;stroke-width:1.33333325"
     id="path306" /><path
     inkscape:connector-curvature="0"
     d="m 155.38933,55.470676 1.128,1.936 -1.136,0.66 0.016,0.028 c 1.008,-0.08667 1.896,0.358667 2.33067,1.105333 0.99733,1.714667 0.956,3.294667 -0.924,4.389333 l -5.01867,2.924 -1.128,-1.934666 4.45067,-2.594667 c 0.664,-0.386666 1.404,-0.928 0.64133,-2.241333 -0.68533,-1.174667 -1.472,-1.032 -2.08133,-0.677333 l -4.64534,2.706666 -1.128,-1.936 z"
     style="fill:#2151a8;fill-opacity:1;fill-rule:nonzero;stroke:none;stroke-width:1.33333325"
     id="path310" /></svg>